<svg xmlns="http://www.w3.org/2000/svg" xmlns:xlink="http://www.w3.org/1999/xlink"
  style="margin:auto;background:#161a30;display:block;z-index:1;position:relative" width="1440" height="675"
  preserveAspectRatio="xMidYMid" viewBox="0 0 1440 675">
  <g transform="translate(720,337.5) scale(1,1) translate(-720,-337.5)">
    <path
      d="M-100 393.69C-73.52 395.04 -73.05 405.8 -47.1 405.8S-19.52 408.19 5.81 408.19S32.77 406.02 58.71 406.02S85.46 392.83 111.61 392.83S139.28 391.56 164.52 391.56S191.26 403.46 217.42 403.46S244.32 400.46 270.32 400.46S297.68 402.31 323.23 402.31S349.69 396.05 376.13 396.05S403.08 398.6 429.03 398.6S456.14 393.85 481.94 393.85S509.8 401.88 534.84 401.88S561.54 398.46 587.74 398.46S614.74 400.48 640.65 400.48S667.61 397.93 693.55 397.93S720.73 404.43 746.45 404.43S773.91 397.24 799.35 397.24S826.87 400.69 852.26 400.69S880.02 400.59 905.16 400.59S932.26 396.9 958.06 396.9S985.75 402.47 1010.97 402.47S1037.9 392.91 1063.87 392.91S1090.56 400.09 1116.77 400.09S1144.6 394.44 1169.68 394.44S1196.88 405.95 1222.58 405.95S1250.64 405.63 1275.48 405.63S1302.8 402.61 1328.39 402.61S1355.65 393.22 1381.29 393.22S1407.99 396.24 1434.19 396.24S1461.57 396.26 1487.1 396.26S1514.01 397.12 1540 397.12S1567.76 408.28 1592.9 408.28L1540 675 L-100 675 Z"
      fill="#161a30" stroke-width="0">
      <animate attributeName="d" dur="25s" repeatCount="indefinite"
        values="M-100 393.69C-73.52 395.04 -73.05 405.8 -47.1 405.8S-19.52 408.19 5.81 408.19S32.77 406.02 58.71 406.02S85.46 392.83 111.61 392.83S139.28 391.56 164.52 391.56S191.26 403.46 217.42 403.46S244.32 400.46 270.32 400.46S297.68 402.31 323.23 402.31S349.69 396.05 376.13 396.05S403.08 398.6 429.03 398.6S456.14 393.85 481.94 393.85S509.8 401.88 534.84 401.88S561.54 398.46 587.74 398.46S614.74 400.48 640.65 400.48S667.61 397.93 693.55 397.93S720.73 404.43 746.45 404.43S773.91 397.24 799.35 397.24S826.87 400.69 852.26 400.69S880.02 400.59 905.16 400.59S932.26 396.9 958.06 396.9S985.75 402.47 1010.97 402.47S1037.9 392.91 1063.87 392.91S1090.56 400.09 1116.77 400.09S1144.6 394.44 1169.68 394.44S1196.88 405.95 1222.58 405.95S1250.64 405.63 1275.48 405.63S1302.8 402.61 1328.39 402.61S1355.65 393.22 1381.29 393.22S1407.99 396.24 1434.19 396.24S1461.57 396.26 1487.1 396.26S1514.01 397.12 1540 397.12S1567.76 408.28 1592.9 408.28L1540 675 L-100 675 Z;M-100 403.83C-72.96 393.19 -72.2 407.4 -47.1 407.4S-19.94 397.54 5.81 397.54S32.6 406.79 58.71 406.79S85.46 404.43 111.61 404.43S139.27 397.91 164.52 397.91S191.11 395.01 217.42 395.01S244.67 402.22 270.32 402.22S296.82 394.52 323.23 394.52S350.85 396.58 376.13 396.58S403.11 400.29 429.03 400.29S456.65 396.6 481.94 396.6S509.86 405.81 534.84 405.81S562.68 394.41 587.74 394.41S614.74 393.77 640.65 393.77S667.74 407.84 693.55 407.84S720.36 399.81 746.45 399.81S773.32 394.36 799.35 394.36S825.93 404.36 852.26 404.36S879.36 405.84 905.16 405.84S932.63 396.04 958.06 396.04S984.88 394.47 1010.97 394.47S1037.85 405.6 1063.87 405.6S1091.34 399.94 1116.77 399.94S1143.69 406.74 1169.68 406.74S1196.19 401.67 1222.58 401.67S1249.15 394.55 1275.48 394.55S1302.35 404.84 1328.39 404.84S1354.86 397.56 1381.29 397.56S1408.14 398.98 1434.19 398.98S1460.89 400.5 1487.1 400.5S1515.13 405.12 1540 405.12S1566.83 393.1 1592.9 393.1L1540 675 L-100 675 Z;M-100 393.69C-73.52 395.04 -73.05 405.8 -47.1 405.8S-19.52 408.19 5.81 408.19S32.77 406.02 58.71 406.02S85.46 392.83 111.61 392.83S139.28 391.56 164.52 391.56S191.26 403.46 217.42 403.46S244.32 400.46 270.32 400.46S297.68 402.31 323.23 402.31S349.69 396.05 376.13 396.05S403.08 398.6 429.03 398.6S456.14 393.85 481.94 393.85S509.8 401.88 534.84 401.88S561.54 398.46 587.74 398.46S614.74 400.48 640.65 400.48S667.61 397.93 693.55 397.93S720.73 404.43 746.45 404.43S773.91 397.24 799.35 397.24S826.87 400.69 852.26 400.69S880.02 400.59 905.16 400.59S932.26 396.9 958.06 396.9S985.75 402.47 1010.97 402.47S1037.9 392.91 1063.87 392.91S1090.56 400.09 1116.77 400.09S1144.6 394.44 1169.68 394.44S1196.88 405.95 1222.58 405.95S1250.64 405.63 1275.48 405.63S1302.8 402.61 1328.39 402.61S1355.65 393.22 1381.29 393.22S1407.99 396.24 1434.19 396.24S1461.57 396.26 1487.1 396.26S1514.01 397.12 1540 397.12S1567.76 408.28 1592.9 408.28L1540 675 L-100 675 Z">
      </animate>
      <animateTransform attributeName="transform" type="translate" dur="25s" begin="0s" repeatCount="indefinite"
        values="0;10;0" calcMode="spline" keySplines="0.3 0 0.7 1;0.3 0 0.7 1"></animateTransform>
    </path>
    <path
      d="M-100 417.36C-71.9 411.07 -72.42 422.16 -45.7 422.16S-18.03 412.8 8.61 412.8S37.19 415.38 62.91 415.38S90.7 410.09 117.22 410.09S144.5 420 171.52 420S199.17 416.5 225.83 416.5S253.69 418.33 280.13 418.33S307.35 424.23 334.44 424.23S362.16 421.86 388.74 421.86S417.02 413.87 443.05 413.87S470.52 421.12 497.35 421.12S524.74 420.43 551.66 420.43S579.82 420.32 605.96 420.32S633.27 415.48 660.26 415.48S689.01 420.84 714.57 420.84S742.35 413.46 768.87 413.46S797.1 419 823.18 419S851.53 426.65 877.48 426.65S905.17 425.89 931.79 425.89S960.54 414.08 986.09 414.08S1014.12 421.63 1040.4 421.63S1068.12 420.83 1094.7 420.83S1122.98 423.2 1149.01 423.2S1176.28 410.87 1203.31 410.87S1231.62 421.8 1257.62 421.8S1285.24 422.33 1311.92 422.33S1340.08 426.93 1366.23 426.93S1394.84 419.4 1420.53 419.4S1447.78 424.05 1474.83 424.05S1502.47 408.67 1529.14 408.67S1557.67 422.58 1583.44 422.58L1540 675 L-100 675 Z"
      fill="#1e2e41" stroke-width="0">
      <animate attributeName="d" dur="22.5s" repeatCount="indefinite"
        values="M-100 417.36C-71.9 411.07 -72.42 422.16 -45.7 422.16S-18.03 412.8 8.61 412.8S37.19 415.38 62.91 415.38S90.7 410.09 117.22 410.09S144.5 420 171.52 420S199.17 416.5 225.83 416.5S253.69 418.33 280.13 418.33S307.35 424.23 334.44 424.23S362.16 421.86 388.74 421.86S417.02 413.87 443.05 413.87S470.52 421.12 497.35 421.12S524.74 420.43 551.66 420.43S579.82 420.32 605.96 420.32S633.27 415.48 660.26 415.48S689.01 420.84 714.57 420.84S742.35 413.46 768.87 413.46S797.1 419 823.18 419S851.53 426.65 877.48 426.65S905.17 425.89 931.79 425.89S960.54 414.08 986.09 414.08S1014.12 421.63 1040.4 421.63S1068.12 420.83 1094.7 420.83S1122.98 423.2 1149.01 423.2S1176.28 410.87 1203.31 410.87S1231.62 421.8 1257.62 421.8S1285.24 422.33 1311.92 422.33S1340.08 426.93 1366.23 426.93S1394.84 419.4 1420.53 419.4S1447.78 424.05 1474.83 424.05S1502.47 408.67 1529.14 408.67S1557.67 422.58 1583.44 422.58L1540 675 L-100 675 Z;M-100 414.08C-71.45 421.18 -71.77 417.02 -45.7 417.02S-17.7 413.09 8.61 413.09S37.26 415.16 62.91 415.16S90.22 424.21 117.22 424.21S145.34 419.8 171.52 419.8S198.68 415.89 225.83 415.89S254.28 420.09 280.13 420.09S308.76 422.13 334.44 422.13S361.77 416.92 388.74 416.92S416.03 414.13 443.05 414.13S471.05 424.63 497.35 424.63S525.44 416.92 551.66 416.92S579.38 422.83 605.96 422.83S634.45 415.76 660.26 415.76S688.8 416.95 714.57 416.95S741.73 416.92 768.87 416.92S797.49 420.64 823.18 420.64S850.43 417.78 877.48 417.78S904.74 422.14 931.79 422.14S960.58 420.03 986.09 420.03S1013.77 420.32 1040.4 420.32S1069 424.8 1094.7 424.8S1121.91 426.94 1149.01 426.94S1176.9 413.84 1203.31 413.84S1231.25 425.18 1257.62 425.18S1286.19 417.95 1311.92 417.95S1339.97 413.19 1366.23 413.19S1394.67 412.43 1420.53 412.43S1448.18 416.81 1474.83 416.81S1503.58 422.39 1529.14 422.39S1556.4 419.39 1583.44 419.39L1540 675 L-100 675 Z;M-100 417.36C-71.9 411.07 -72.42 422.16 -45.7 422.16S-18.03 412.8 8.61 412.8S37.19 415.38 62.91 415.38S90.7 410.09 117.22 410.09S144.5 420 171.52 420S199.17 416.5 225.83 416.5S253.69 418.33 280.13 418.33S307.35 424.23 334.44 424.23S362.16 421.86 388.74 421.86S417.02 413.87 443.05 413.87S470.52 421.12 497.35 421.12S524.74 420.43 551.66 420.43S579.82 420.32 605.96 420.32S633.27 415.48 660.26 415.48S689.01 420.84 714.57 420.84S742.35 413.46 768.87 413.46S797.1 419 823.18 419S851.53 426.65 877.48 426.65S905.17 425.89 931.79 425.89S960.54 414.08 986.09 414.08S1014.12 421.63 1040.4 421.63S1068.12 420.83 1094.7 420.83S1122.98 423.2 1149.01 423.2S1176.28 410.87 1203.31 410.87S1231.62 421.8 1257.62 421.8S1285.24 422.33 1311.92 422.33S1340.08 426.93 1366.23 426.93S1394.84 419.4 1420.53 419.4S1447.78 424.05 1474.83 424.05S1502.47 408.67 1529.14 408.67S1557.67 422.58 1583.44 422.58L1540 675 L-100 675 Z">
      </animate>
      <animateTransform attributeName="transform" type="translate" dur="22.5s" begin="-2.25s" repeatCount="indefinite"
        values="0;10;0" calcMode="spline" keySplines="0.3 0 0.7 1;0.3 0 0.7 1"></animateTransform>
    </path>
    <path
      d="M-100 441.56C-71.15 441 -72 448.46 -44.22 448.46S-14.83 436 11.56 436S39.73 440.89 67.35 440.89S95.26 435.96 123.13 435.96S152.59 445.92 178.91 445.92S207.4 426.27 234.69 426.27S263.7 446.1 290.48 446.1S320.02 436.04 346.26 436.04S374.68 425.41 402.04 425.41S431.41 430.09 457.82 430.09S486.93 439.54 513.61 439.54S541.57 430.4 569.39 430.4S597.45 435.24 625.17 435.24S654.11 440.44 680.95 440.44S709.92 441.71 736.73 441.71S764.74 431.5 792.52 431.5S820.6 433.9 848.3 433.9S877.1 432.96 904.08 432.96S932.19 436 959.86 436S988.23 430.67 1015.65 430.67S1043.56 434.11 1071.43 434.11S1100.06 429.25 1127.21 429.25S1155.65 442.03 1182.99 442.03S1212.41 431.58 1238.78 431.58S1268.1 433.51 1294.56 433.51S1322.83 436.86 1350.34 436.86S1378.48 429.34 1406.12 429.34S1435.61 431.49 1461.9 431.49S1490.76 434.92 1517.69 434.92S1546.58 432.28 1573.47 432.28L1540 675 L-100 675 Z"
      fill="#2a4251" stroke-width="0">
      <animate attributeName="d" dur="20s" repeatCount="indefinite"
        values="M-100 441.56C-71.15 441 -72 448.46 -44.22 448.46S-14.83 436 11.56 436S39.73 440.89 67.35 440.89S95.26 435.96 123.13 435.96S152.59 445.92 178.91 445.92S207.4 426.27 234.69 426.27S263.7 446.1 290.48 446.1S320.02 436.04 346.26 436.04S374.68 425.41 402.04 425.41S431.41 430.09 457.82 430.09S486.93 439.54 513.61 439.54S541.57 430.4 569.39 430.4S597.45 435.24 625.17 435.24S654.11 440.44 680.95 440.44S709.92 441.71 736.73 441.71S764.74 431.5 792.52 431.5S820.6 433.9 848.3 433.9S877.1 432.96 904.08 432.96S932.19 436 959.86 436S988.23 430.67 1015.65 430.67S1043.56 434.11 1071.43 434.11S1100.06 429.25 1127.21 429.25S1155.65 442.03 1182.99 442.03S1212.41 431.58 1238.78 431.58S1268.1 433.51 1294.56 433.51S1322.83 436.86 1350.34 436.86S1378.48 429.34 1406.12 429.34S1435.61 431.49 1461.9 431.49S1490.76 434.92 1517.69 434.92S1546.58 432.28 1573.47 432.28L1540 675 L-100 675 Z;M-100 436.62C-71.64 439.32 -71.29 448.79 -44.22 448.79S-14.81 427.57 11.56 427.57S40.61 440.68 67.35 440.68S95.27 437.18 123.13 437.18S152.03 445.26 178.91 445.26S207.02 438.85 234.69 438.85S264.19 441.57 290.48 441.57S318.48 433.45 346.26 433.45S375.56 440.88 402.04 440.88S430.23 430.95 457.82 430.95S486.11 435.8 513.61 435.8S542.24 432.36 569.39 432.36S598.39 439.9 625.17 439.9S654.49 430.32 680.95 430.32S708.99 434.92 736.73 434.92S765.59 435.31 792.52 435.31S821.92 439.96 848.3 439.96S877.12 428.89 904.08 428.89S932.93 447.74 959.86 447.74S988.64 439.8 1015.65 439.8S1043.6 440.68 1071.43 440.68S1100.14 441.3 1127.21 441.3S1155.85 437.53 1182.99 437.53S1211.19 444.06 1238.78 444.06S1267.3 433.03 1294.56 433.03S1323.49 425.82 1350.34 425.82S1378.77 435.48 1406.12 435.48S1434.07 438 1461.9 438S1490.29 447.74 1517.69 447.74S1546.52 445.07 1573.47 445.07L1540 675 L-100 675 Z;M-100 441.56C-71.15 441 -72 448.46 -44.22 448.46S-14.83 436 11.56 436S39.73 440.89 67.35 440.89S95.26 435.96 123.13 435.96S152.59 445.92 178.91 445.92S207.4 426.27 234.69 426.27S263.7 446.1 290.48 446.1S320.02 436.04 346.26 436.04S374.68 425.41 402.04 425.41S431.41 430.09 457.82 430.09S486.93 439.54 513.61 439.54S541.57 430.4 569.39 430.4S597.45 435.24 625.17 435.24S654.11 440.44 680.95 440.44S709.92 441.71 736.73 441.71S764.74 431.5 792.52 431.5S820.6 433.9 848.3 433.9S877.1 432.96 904.08 432.96S932.19 436 959.86 436S988.23 430.67 1015.65 430.67S1043.56 434.11 1071.43 434.11S1100.06 429.25 1127.21 429.25S1155.65 442.03 1182.99 442.03S1212.41 431.58 1238.78 431.58S1268.1 433.51 1294.56 433.51S1322.83 436.86 1350.34 436.86S1378.48 429.34 1406.12 429.34S1435.61 431.49 1461.9 431.49S1490.76 434.92 1517.69 434.92S1546.58 432.28 1573.47 432.28L1540 675 L-100 675 Z">
      </animate>
      <animateTransform attributeName="transform" type="translate" dur="20s" begin="-4s" repeatCount="indefinite"
        values="0;10;0" calcMode="spline" keySplines="0.3 0 0.7 1;0.3 0 0.7 1"></animateTransform>
    </path>
    <path
      d="M-100 455.17C-71.03 452.43 -70.43 464.06 -42.66 464.06S-13.31 442.52 14.69 442.52S43.68 460.38 72.03 460.38S101.45 443.32 129.37 443.32S158.43 462.23 186.71 462.23S216.91 456.75 244.06 456.75S272.84 455.52 301.4 455.52S330.27 461.61 358.74 461.61S389.03 466.56 416.08 466.56S446.28 468.69 473.43 468.69S503.02 457.77 530.77 457.77S560.37 454.71 588.11 454.71S618.45 461.16 645.45 461.16S675.5 452.09 702.8 452.09S733.06 464.78 760.14 464.78S790.31 453.63 817.48 453.63S847.33 456.42 874.83 456.42S903.61 448.23 932.17 448.23S962.35 458.66 989.51 458.66S1019.04 450 1046.85 450S1076.73 456.74 1104.2 456.74S1133.88 458.57 1161.54 458.57S1190.88 459.22 1218.88 459.22S1248.48 453.29 1276.22 453.29S1306.43 458.67 1333.57 458.67S1362.35 450.24 1390.91 450.24S1420.53 463 1448.25 463S1477.83 453.14 1505.59 453.14S1534.87 460.97 1562.94 460.97L1540 675 L-100 675 Z"
      fill="#3b575f" stroke-width="0">
      <animate attributeName="d" dur="17.5s" repeatCount="indefinite"
        values="M-100 455.17C-71.03 452.43 -70.43 464.06 -42.66 464.06S-13.31 442.52 14.69 442.52S43.68 460.38 72.03 460.38S101.45 443.32 129.37 443.32S158.43 462.23 186.71 462.23S216.91 456.75 244.06 456.75S272.84 455.52 301.4 455.52S330.27 461.61 358.74 461.61S389.03 466.56 416.08 466.56S446.28 468.69 473.43 468.69S503.02 457.77 530.77 457.77S560.37 454.71 588.11 454.71S618.45 461.16 645.45 461.16S675.5 452.09 702.8 452.09S733.06 464.78 760.14 464.78S790.31 453.63 817.48 453.63S847.33 456.42 874.83 456.42S903.61 448.23 932.17 448.23S962.35 458.66 989.51 458.66S1019.04 450 1046.85 450S1076.73 456.74 1104.2 456.74S1133.88 458.57 1161.54 458.57S1190.88 459.22 1218.88 459.22S1248.48 453.29 1276.22 453.29S1306.43 458.67 1333.57 458.67S1362.35 450.24 1390.91 450.24S1420.53 463 1448.25 463S1477.83 453.14 1505.59 453.14S1534.87 460.97 1562.94 460.97L1540 675 L-100 675 Z;M-100 443.81C-70.04 448.32 -70.46 454.74 -42.66 454.74S-13.25 465.94 14.69 465.94S43.52 452.51 72.03 452.51S101.17 443.22 129.37 443.22S158.88 460.86 186.71 460.86S216.46 451.9 244.06 451.9S274.22 461.44 301.4 461.44S330.57 455.67 358.74 455.67S388.07 462.62 416.08 462.62S446.41 458.64 473.43 458.64S503.26 455.94 530.77 455.94S559.89 458.62 588.11 458.62S617.46 462.65 645.45 462.65S674.52 448.89 702.8 448.89S732.46 448.75 760.14 448.75S788.87 456.31 817.48 456.31S847.66 469.06 874.83 469.06S903.6 446.57 932.17 446.57S961.92 445.71 989.51 445.71S1018.38 447.46 1046.85 447.46S1076.51 454.4 1104.2 454.4S1132.94 454.41 1161.54 454.41S1190.81 455.48 1218.88 455.48S1248.86 455.5 1276.22 455.5S1305.42 454.12 1333.57 454.12S1363.6 458.26 1390.91 458.26S1420.47 449.07 1448.25 449.07S1476.97 447.97 1505.59 447.97S1535.02 457.3 1562.94 457.3L1540 675 L-100 675 Z;M-100 455.17C-71.03 452.43 -70.43 464.06 -42.66 464.06S-13.31 442.52 14.69 442.52S43.68 460.38 72.03 460.38S101.45 443.32 129.37 443.32S158.43 462.23 186.71 462.23S216.91 456.75 244.06 456.75S272.84 455.52 301.4 455.52S330.27 461.61 358.74 461.61S389.03 466.56 416.08 466.56S446.28 468.69 473.43 468.69S503.02 457.77 530.77 457.77S560.37 454.71 588.11 454.71S618.45 461.16 645.45 461.16S675.5 452.09 702.8 452.09S733.06 464.78 760.14 464.78S790.31 453.63 817.48 453.63S847.33 456.42 874.83 456.42S903.61 448.23 932.17 448.23S962.35 458.66 989.51 458.66S1019.04 450 1046.85 450S1076.73 456.74 1104.2 456.74S1133.88 458.57 1161.54 458.57S1190.88 459.22 1218.88 459.22S1248.48 453.29 1276.22 453.29S1306.43 458.67 1333.57 458.67S1362.35 450.24 1390.91 450.24S1420.53 463 1448.25 463S1477.83 453.14 1505.59 453.14S1534.87 460.97 1562.94 460.97L1540 675 L-100 675 Z">
      </animate>
      <animateTransform attributeName="transform" type="translate" dur="17.5s" begin="-5.25s" repeatCount="indefinite"
        values="0;10;0" calcMode="spline" keySplines="0.3 0 0.7 1;0.3 0 0.7 1"></animateTransform>
    </path>
    <path
      d="M-100 486.27C-70.47 474.01 -69.38 478.82 -41.01 478.82S-11 477.61 17.99 477.61S48.77 483.41 76.98 483.41S106.52 463.02 135.97 463.02S166.25 486.52 194.96 486.52S225.88 482.07 253.96 482.07S284.48 478.02 312.95 478.02S343.75 473.23 371.94 473.23S402.56 483.74 430.94 483.74S460.94 472.15 489.93 472.15S520.92 481.25 548.92 481.25S578.88 464.25 607.91 464.25S638.14 474.55 666.91 474.55S697.65 469.3 725.9 469.3S757.01 477.82 784.89 477.82S815.72 464.08 843.88 464.08S875.03 483.89 902.88 483.89S933.74 471.56 961.87 471.56S992.32 485.81 1020.86 485.81S1050.91 471.72 1079.86 471.72S1110.96 478.91 1138.85 478.91S1169.56 474.35 1197.84 474.35S1227.54 477.64 1256.83 477.64S1287.04 464.62 1315.83 464.62S1345.99 486.11 1374.82 486.11S1404.63 485.79 1433.81 485.79S1464.12 472.51 1492.81 472.51S1522.85 466.15 1551.8 466.15L1540 675 L-100 675 Z"
      fill="#506c6d" stroke-width="0">
      <animate attributeName="d" dur="15s" repeatCount="indefinite"
        values="M-100 486.27C-70.47 474.01 -69.38 478.82 -41.01 478.82S-11 477.61 17.99 477.61S48.77 483.41 76.98 483.41S106.52 463.02 135.97 463.02S166.25 486.52 194.96 486.52S225.88 482.07 253.96 482.07S284.48 478.02 312.95 478.02S343.75 473.23 371.94 473.23S402.56 483.74 430.94 483.74S460.94 472.15 489.93 472.15S520.92 481.25 548.92 481.25S578.88 464.25 607.91 464.25S638.14 474.55 666.91 474.55S697.65 469.3 725.9 469.3S757.01 477.82 784.89 477.82S815.72 464.08 843.88 464.08S875.03 483.89 902.88 483.89S933.74 471.56 961.87 471.56S992.32 485.81 1020.86 485.81S1050.91 471.72 1079.86 471.72S1110.96 478.91 1138.85 478.91S1169.56 474.35 1197.84 474.35S1227.54 477.64 1256.83 477.64S1287.04 464.62 1315.83 464.62S1345.99 486.11 1374.82 486.11S1404.63 485.79 1433.81 485.79S1464.12 472.51 1492.81 472.51S1522.85 466.15 1551.8 466.15L1540 675 L-100 675 Z;M-100 469.27C-69.61 472.43 -70.35 478.46 -41.01 478.46S-11.45 473.04 17.99 473.04S49.08 466.87 76.98 466.87S108.06 462 135.97 462S167.09 472.66 194.96 472.66S225.64 463.4 253.96 463.4S284.12 475.21 312.95 475.21S342.93 474.35 371.94 474.35S401.88 475.88 430.94 475.88S461.18 479.77 489.93 479.77S519.94 488.71 548.92 488.71S578.45 470.01 607.91 470.01S637.67 483.71 666.91 483.71S697.2 469.05 725.9 469.05S756.57 485.38 784.89 485.38S815.23 479.4 843.88 479.4S874.06 486 902.88 486S933.51 473.61 961.87 473.61S992.11 477.54 1020.86 477.54S1051.97 459.05 1079.86 459.05S1110.51 478.89 1138.85 478.89S1169.91 474.1 1197.84 474.1S1227.94 481.22 1256.83 481.22S1288.01 464.57 1315.83 464.57S1345.81 487.78 1374.82 487.78S1404.37 459.31 1433.81 459.31S1463.88 477.83 1492.81 477.83S1522.51 471.58 1551.8 471.58L1540 675 L-100 675 Z;M-100 486.27C-70.47 474.01 -69.38 478.82 -41.01 478.82S-11 477.61 17.99 477.61S48.77 483.41 76.98 483.41S106.52 463.02 135.97 463.02S166.25 486.52 194.96 486.52S225.88 482.07 253.96 482.07S284.48 478.02 312.95 478.02S343.75 473.23 371.94 473.23S402.56 483.74 430.94 483.74S460.94 472.15 489.93 472.15S520.92 481.25 548.92 481.25S578.88 464.25 607.91 464.25S638.14 474.55 666.91 474.55S697.65 469.3 725.9 469.3S757.01 477.82 784.89 477.82S815.72 464.08 843.88 464.08S875.03 483.89 902.88 483.89S933.74 471.56 961.87 471.56S992.32 485.81 1020.86 485.81S1050.91 471.72 1079.86 471.72S1110.96 478.91 1138.85 478.91S1169.56 474.35 1197.84 474.35S1227.54 477.64 1256.83 477.64S1287.04 464.62 1315.83 464.62S1345.99 486.11 1374.82 486.11S1404.63 485.79 1433.81 485.79S1464.12 472.51 1492.81 472.51S1522.85 466.15 1551.8 466.15L1540 675 L-100 675 Z">
      </animate>
      <animateTransform attributeName="transform" type="translate" dur="15s" begin="-6s" repeatCount="indefinite"
        values="0;10;0" calcMode="spline" keySplines="0.3 0 0.7 1;0.3 0 0.7 1"></animateTransform>
    </path>
    <path
      d="M-100 503.38C-68.05 494.74 -68.58 495.14 -39.26 495.14S-7.61 481.59 21.48 481.59S52.07 504.33 82.22 504.33S114.16 483.53 142.96 483.53S174.49 494.97 203.7 494.97S235.71 482.91 264.44 482.91S295.59 495.04 325.19 495.04S356.46 478.09 385.93 478.09S417.29 503.99 446.67 503.99S477.05 483.83 507.41 483.83S538.25 498.01 568.15 498.01S599.03 477.61 628.89 477.61S660.16 509.12 689.63 509.12S720.34 481.16 750.37 481.16S781.34 498.67 811.11 498.67S843.06 483.86 871.85 483.86S903.16 508.92 932.59 508.92S963.07 482.87 993.33 482.87S1024.85 483.17 1054.07 483.17S1084.63 490.52 1114.81 490.52S1145.75 509.58 1175.56 509.58S1206.78 477.3 1236.3 477.3S1267.68 509.37 1297.04 509.37S1328.47 486.89 1357.78 486.89S1388.92 498.92 1418.52 498.92S1449.88 492.06 1479.26 492.06S1510.8 491.41 1540 491.41S1571.32 481.03 1600.74 481.03L1540 675 L-100 675 Z"
      fill="#68807c" stroke-width="0">
      <animate attributeName="d" dur="12.5s" repeatCount="indefinite"
        values="M-100 503.38C-68.05 494.74 -68.58 495.14 -39.26 495.14S-7.61 481.59 21.48 481.59S52.07 504.33 82.22 504.33S114.16 483.53 142.96 483.53S174.49 494.97 203.7 494.97S235.71 482.91 264.44 482.91S295.59 495.04 325.19 495.04S356.46 478.09 385.93 478.09S417.29 503.99 446.67 503.99S477.05 483.83 507.41 483.83S538.25 498.01 568.15 498.01S599.03 477.61 628.89 477.61S660.16 509.12 689.63 509.12S720.34 481.16 750.37 481.16S781.34 498.67 811.11 498.67S843.06 483.86 871.85 483.86S903.16 508.92 932.59 508.92S963.07 482.87 993.33 482.87S1024.85 483.17 1054.07 483.17S1084.63 490.52 1114.81 490.52S1145.75 509.58 1175.56 509.58S1206.78 477.3 1236.3 477.3S1267.68 509.37 1297.04 509.37S1328.47 486.89 1357.78 486.89S1388.92 498.92 1418.52 498.92S1449.88 492.06 1479.26 492.06S1510.8 491.41 1540 491.41S1571.32 481.03 1600.74 481.03L1540 675 L-100 675 Z;M-100 486.71C-68.5 491.27 -69.1 498 -39.26 498S-8.19 481.98 21.48 481.98S51.93 505.05 82.22 505.05S114.26 482.71 142.96 482.71S174.67 494.87 203.7 494.87S234.76 476.66 264.44 476.66S296.01 497.87 325.19 497.87S356.91 484.52 385.93 484.52S416.49 504.88 446.67 504.88S477.08 490.28 507.41 490.28S539.1 505.67 568.15 505.67S599.78 486.64 628.89 486.64S659.89 502.26 689.63 502.26S720.67 476.85 750.37 476.85S782.43 507.04 811.11 507.04S841.91 478.66 871.85 478.66S903.55 479.31 932.59 479.31S963.82 485.92 993.33 485.92S1024.71 495.36 1054.07 495.36S1085.86 498.32 1114.81 498.32S1146.68 494.59 1175.56 494.59S1207.2 485.39 1236.3 485.39S1266.9 497.75 1297.04 497.75S1328.38 500.92 1357.78 500.92S1388.27 498.42 1418.52 498.42S1449.7 492.62 1479.26 492.62S1510.5 496.82 1540 496.82S1570.62 491.75 1600.74 491.75L1540 675 L-100 675 Z;M-100 503.38C-68.05 494.74 -68.58 495.14 -39.26 495.14S-7.61 481.59 21.48 481.59S52.07 504.33 82.22 504.33S114.16 483.53 142.96 483.53S174.49 494.97 203.7 494.97S235.71 482.91 264.44 482.91S295.59 495.04 325.19 495.04S356.46 478.09 385.93 478.09S417.29 503.99 446.67 503.99S477.05 483.83 507.41 483.83S538.25 498.01 568.15 498.01S599.03 477.61 628.89 477.61S660.16 509.12 689.63 509.12S720.34 481.16 750.37 481.16S781.34 498.67 811.11 498.67S843.06 483.86 871.85 483.86S903.16 508.92 932.59 508.92S963.07 482.87 993.33 482.87S1024.85 483.17 1054.07 483.17S1084.63 490.52 1114.81 490.52S1145.75 509.58 1175.56 509.58S1206.78 477.3 1236.3 477.3S1267.68 509.37 1297.04 509.37S1328.47 486.89 1357.78 486.89S1388.92 498.92 1418.52 498.92S1449.88 492.06 1479.26 492.06S1510.8 491.41 1540 491.41S1571.32 481.03 1600.74 481.03L1540 675 L-100 675 Z">
      </animate>
      <animateTransform attributeName="transform" type="translate" dur="12.5s" begin="-6.25s" repeatCount="indefinite"
        values="0;10;0" calcMode="spline" keySplines="0.3 0 0.7 1;0.3 0 0.7 1"></animateTransform>
    </path>
    <path
      d="M-100 493.66C-68.59 507.82 -68.01 523.76 -37.4 523.76S-6.06 495.72 25.19 495.72S56.7 505.36 87.79 505.36S120.38 496.65 150.38 496.65S183.12 527.84 212.98 527.84S245.32 493.69 275.57 493.69S307.15 501.22 338.17 501.22S369.66 496.59 400.76 496.59S432.24 515.3 463.36 515.3S496.31 500.69 525.95 500.69S557.94 519.94 588.55 519.94S620.99 503.51 651.15 503.51S683.47 518.64 713.74 518.64S745.22 506.76 776.34 506.76S809.14 498.59 838.93 498.59S870.6 506.84 901.53 506.84S933.36 502.38 964.12 502.38S996.9 528.71 1026.72 528.71S1059.58 516.83 1089.31 516.83S1122.18 505.64 1151.91 505.64S1184.16 521.25 1214.5 521.25S1247.13 494.9 1277.1 494.9S1308.93 504.34 1339.69 504.34S1371.6 497.1 1402.29 497.1S1434.63 529.76 1464.89 529.76S1496.36 507.95 1527.48 507.95S1559.9 528.93 1590.08 528.93L1540 675 L-100 675 Z"
      fill="#82958c" stroke-width="0">
      <animate attributeName="d" dur="10s" repeatCount="indefinite"
        values="M-100 493.66C-68.59 507.82 -68.01 523.76 -37.4 523.76S-6.06 495.72 25.19 495.72S56.7 505.36 87.79 505.36S120.38 496.65 150.38 496.65S183.12 527.84 212.98 527.84S245.32 493.69 275.57 493.69S307.15 501.22 338.17 501.22S369.66 496.59 400.76 496.59S432.24 515.3 463.36 515.3S496.31 500.69 525.95 500.69S557.94 519.94 588.55 519.94S620.99 503.51 651.15 503.51S683.47 518.64 713.74 518.64S745.22 506.76 776.34 506.76S809.14 498.59 838.93 498.59S870.6 506.84 901.53 506.84S933.36 502.38 964.12 502.38S996.9 528.71 1026.72 528.71S1059.58 516.83 1089.31 516.83S1122.18 505.64 1151.91 505.64S1184.16 521.25 1214.5 521.25S1247.13 494.9 1277.1 494.9S1308.93 504.34 1339.69 504.34S1371.6 497.1 1402.29 497.1S1434.63 529.76 1464.89 529.76S1496.36 507.95 1527.48 507.95S1559.9 528.93 1590.08 528.93L1540 675 L-100 675 Z;M-100 493.75C-67.74 498.34 -67.13 517.1 -37.4 517.1S-5.77 503.01 25.19 503.01S57.71 514.25 87.79 514.25S120.63 501.49 150.38 501.49S181.69 519.98 212.98 519.98S244.74 502.12 275.57 502.12S307.7 494.07 338.17 494.07S370.36 500.29 400.76 500.29S432.99 513.47 463.36 513.47S494.67 495.86 525.95 495.86S558.02 514.54 588.55 514.54S621.05 499.54 651.15 499.54S683.72 523.6 713.74 523.6S745.41 502.1 776.34 502.1S808.91 503.37 838.93 503.37S871.47 505.4 901.53 505.4S933.68 520.89 964.12 520.89S997.07 501.15 1026.72 501.15S1058.92 523.22 1089.31 523.22S1121.88 525.06 1151.91 525.06S1183.86 513.19 1214.5 513.19S1246.32 504.99 1277.1 504.99S1309.81 516.52 1339.69 516.52S1371.69 502.8 1402.29 502.8S1434.81 518.76 1464.89 518.76S1496.82 502.32 1527.48 502.32S1559.45 515.77 1590.08 515.77L1540 675 L-100 675 Z;M-100 493.66C-68.59 507.82 -68.01 523.76 -37.4 523.76S-6.06 495.72 25.19 495.72S56.7 505.36 87.79 505.36S120.38 496.65 150.38 496.65S183.12 527.84 212.98 527.84S245.32 493.69 275.57 493.69S307.15 501.22 338.17 501.22S369.66 496.59 400.76 496.59S432.24 515.3 463.36 515.3S496.31 500.69 525.95 500.69S557.94 519.94 588.55 519.94S620.99 503.51 651.15 503.51S683.47 518.64 713.74 518.64S745.22 506.76 776.34 506.76S809.14 498.59 838.93 498.59S870.6 506.84 901.53 506.84S933.36 502.38 964.12 502.38S996.9 528.71 1026.72 528.71S1059.58 516.83 1089.31 516.83S1122.18 505.64 1151.91 505.64S1184.16 521.25 1214.5 521.25S1247.13 494.9 1277.1 494.9S1308.93 504.34 1339.69 504.34S1371.6 497.1 1402.29 497.1S1434.63 529.76 1464.89 529.76S1496.36 507.95 1527.48 507.95S1559.9 528.93 1590.08 528.93L1540 675 L-100 675 Z">
      </animate>
      <animateTransform attributeName="transform" type="translate" dur="10s" begin="-6s" repeatCount="indefinite"
        values="0;10;0" calcMode="spline" keySplines="0.3 0 0.7 1;0.3 0 0.7 1"></animateTransform>
    </path>
    <path
      d="M-100 514.97C-67.07 513.23 -67.03 537.9 -35.43 537.9S-2.41 516.13 29.13 516.13S62.3 539.43 93.7 539.43S126.78 520.11 158.27 520.11S191.61 543.9 222.83 543.9S256.76 523.35 287.4 523.35S321.16 536.24 351.97 536.24S385.12 523.12 416.54 523.12S450.41 535.76 481.1 535.76S514.76 525.99 545.67 525.99S578.16 548.95 610.24 548.95S642.84 512 674.8 512S707.94 538.52 739.37 538.52S771.79 523.57 803.94 523.57S837.36 548.28 868.5 548.28S901.99 518.82 933.07 518.82S966.67 547.92 997.64 547.92S1030.51 515.27 1062.2 515.27S1094.52 544.73 1126.77 544.73S1160.2 525.78 1191.34 525.78S1223.86 548.41 1255.91 548.41S1289.19 513.71 1320.47 513.71S1353.18 518.19 1385.04 518.19S1417.96 542.71 1449.61 542.71S1482.11 541.7 1514.17 541.7S1547.5 517.83 1578.74 517.83L1540 675 L-100 675 Z"
      fill="#9eaa9e" stroke-width="0">
      <animate attributeName="d" dur="7.5s" repeatCount="indefinite"
        values="M-100 514.97C-67.07 513.23 -67.03 537.9 -35.43 537.9S-2.41 516.13 29.13 516.13S62.3 539.43 93.7 539.43S126.78 520.11 158.27 520.11S191.61 543.9 222.83 543.9S256.76 523.35 287.4 523.35S321.16 536.24 351.97 536.24S385.12 523.12 416.54 523.12S450.41 535.76 481.1 535.76S514.76 525.99 545.67 525.99S578.16 548.95 610.24 548.95S642.84 512 674.8 512S707.94 538.52 739.37 538.52S771.79 523.57 803.94 523.57S837.36 548.28 868.5 548.28S901.99 518.82 933.07 518.82S966.67 547.92 997.64 547.92S1030.51 515.27 1062.2 515.27S1094.52 544.73 1126.77 544.73S1160.2 525.78 1191.34 525.78S1223.86 548.41 1255.91 548.41S1289.19 513.71 1320.47 513.71S1353.18 518.19 1385.04 518.19S1417.96 542.71 1449.61 542.71S1482.11 541.7 1514.17 541.7S1547.5 517.83 1578.74 517.83L1540 675 L-100 675 Z;M-100 511.95C-67.19 519.6 -66.08 534.14 -35.43 534.14S-2.12 526.12 29.13 526.12S61.98 535.61 93.7 535.61S127.31 548.35 158.27 548.35S191.5 536.33 222.83 536.33S255.64 525.45 287.4 525.45S320.69 538.96 351.97 538.96S384.8 518.69 416.54 518.69S449.73 546 481.1 546S514.4 521.21 545.67 521.21S578.31 539.85 610.24 539.85S644.05 520.5 674.8 520.5S708.72 534.89 739.37 534.89S772.14 522.75 803.94 522.75S837.9 540.14 868.5 540.14S900.84 525.47 933.07 525.47S966.64 548.56 997.64 548.56S1031.1 513.29 1062.2 513.29S1095.52 544.86 1126.77 544.86S1160.71 523.5 1191.34 523.5S1224.79 538.52 1255.91 538.52S1289.22 519.73 1320.47 519.73S1354.13 534.41 1385.04 534.41S1418.67 515.39 1449.61 515.39S1482.23 542.73 1514.17 542.73S1547 525.32 1578.74 525.32L1540 675 L-100 675 Z;M-100 514.97C-67.07 513.23 -67.03 537.9 -35.43 537.9S-2.41 516.13 29.13 516.13S62.3 539.43 93.7 539.43S126.78 520.11 158.27 520.11S191.61 543.9 222.83 543.9S256.76 523.35 287.4 523.35S321.16 536.24 351.97 536.24S385.12 523.12 416.54 523.12S450.41 535.76 481.1 535.76S514.76 525.99 545.67 525.99S578.16 548.95 610.24 548.95S642.84 512 674.8 512S707.94 538.52 739.37 538.52S771.79 523.57 803.94 523.57S837.36 548.28 868.5 548.28S901.99 518.82 933.07 518.82S966.67 547.92 997.64 547.92S1030.51 515.27 1062.2 515.27S1094.52 544.73 1126.77 544.73S1160.2 525.78 1191.34 525.78S1223.86 548.41 1255.91 548.41S1289.19 513.71 1320.47 513.71S1353.18 518.19 1385.04 518.19S1417.96 542.71 1449.61 542.71S1482.11 541.7 1514.17 541.7S1547.5 517.83 1578.74 517.83L1540 675 L-100 675 Z">
      </animate>
      <animateTransform attributeName="transform" type="translate" dur="7.5s" begin="-5.25s" repeatCount="indefinite"
        values="0;10;0" calcMode="spline" keySplines="0.3 0 0.7 1;0.3 0 0.7 1"></animateTransform>
    </path>
    <path
      d="M-100 526.87C-66.3 527.82 -66.52 559.23 -33.33 559.23S1.46 530.68 33.33 530.68S67.26 569.89 100 569.89S133.82 535.65 166.67 535.65S200.29 554.67 233.33 554.67S267.61 539.96 300 539.96S333.62 567.81 366.67 567.81S400.27 527.66 433.33 527.66S467.47 530.13 500 530.13S533.34 539.2 566.67 539.2S600.67 565.24 633.33 565.24S667.31 528.96 700 528.96S734.55 570.06 766.67 570.06S801.19 529.43 833.33 529.43S866.97 565.27 900 565.27S933.63 533.59 966.67 533.59S1000.66 558.09 1033.33 558.09S1067.8 533.71 1100 533.71S1134.24 541.18 1166.67 541.18S1200.24 534.36 1233.33 534.36S1268.34 558.27 1300 558.27S1333.85 532.03 1366.67 532.03S1401.46 555.77 1433.33 555.77S1467.14 557.6 1500 557.6S1533.9 567.05 1566.67 567.05L1540 675 L-100 675 Z"
      fill="#babfb4" stroke-width="0">
      <animate attributeName="d" dur="5s" repeatCount="indefinite"
        values="M-100 526.87C-66.3 527.82 -66.52 559.23 -33.33 559.23S1.46 530.68 33.33 530.68S67.26 569.89 100 569.89S133.82 535.65 166.67 535.65S200.29 554.67 233.33 554.67S267.61 539.96 300 539.96S333.62 567.81 366.67 567.81S400.27 527.66 433.33 527.66S467.47 530.13 500 530.13S533.34 539.2 566.67 539.2S600.67 565.24 633.33 565.24S667.31 528.96 700 528.96S734.55 570.06 766.67 570.06S801.19 529.43 833.33 529.43S866.97 565.27 900 565.27S933.63 533.59 966.67 533.59S1000.66 558.09 1033.33 558.09S1067.8 533.71 1100 533.71S1134.24 541.18 1166.67 541.18S1200.24 534.36 1233.33 534.36S1268.34 558.27 1300 558.27S1333.85 532.03 1366.67 532.03S1401.46 555.77 1433.33 555.77S1467.14 557.6 1500 557.6S1533.9 567.05 1566.67 567.05L1540 675 L-100 675 Z;M-100 541.09C-65.43 542.47 -65.52 562.15 -33.33 562.15S0.73 532.14 33.33 532.14S66.97 565.07 100 565.07S134.59 542.68 166.67 542.68S201.34 556.62 233.33 556.62S268.02 556.61 300 556.61S334.63 564.1 366.67 564.1S400.06 568.92 433.33 568.92S468.23 569.53 500 569.53S534.48 533.98 566.67 533.98S600.45 562.08 633.33 562.08S667.68 534.46 700 534.46S734.31 555.44 766.67 555.44S801.23 536.87 833.33 536.87S868.19 555.58 900 555.58S933.88 530.45 966.67 530.45S1000.97 556.32 1033.33 556.32S1068.26 541.52 1100 541.52S1134.71 556.81 1166.67 556.81S1200.33 542.05 1233.33 542.05S1267.33 566.28 1300 566.28S1333.94 529.79 1366.67 529.79S1401.68 540.58 1433.33 540.58S1467.22 530.83 1500 530.83S1534.83 567.05 1566.67 567.05L1540 675 L-100 675 Z;M-100 526.87C-66.3 527.82 -66.52 559.23 -33.33 559.23S1.46 530.68 33.33 530.68S67.26 569.89 100 569.89S133.82 535.65 166.67 535.65S200.29 554.67 233.33 554.67S267.61 539.96 300 539.96S333.62 567.81 366.67 567.81S400.27 527.66 433.33 527.66S467.47 530.13 500 530.13S533.34 539.2 566.67 539.2S600.67 565.24 633.33 565.24S667.31 528.96 700 528.96S734.55 570.06 766.67 570.06S801.19 529.43 833.33 529.43S866.97 565.27 900 565.27S933.63 533.59 966.67 533.59S1000.66 558.09 1033.33 558.09S1067.8 533.71 1100 533.71S1134.24 541.18 1166.67 541.18S1200.24 534.36 1233.33 534.36S1268.34 558.27 1300 558.27S1333.85 532.03 1366.67 532.03S1401.46 555.77 1433.33 555.77S1467.14 557.6 1500 557.6S1533.9 567.05 1566.67 567.05L1540 675 L-100 675 Z">
      </animate>
      <animateTransform attributeName="transform" type="translate" dur="5s" begin="-4s" repeatCount="indefinite"
        values="0;10;0" calcMode="spline" keySplines="0.3 0 0.7 1;0.3 0 0.7 1"></animateTransform>
    </path>
    <path
      d="M-100 549.76C-64.21 549.28 -64.82 582.09 -31.09 582.09S3.55 550.18 37.82 550.18S72.4 576.66 106.72 576.66S142.03 586.16 175.63 586.16S210.5 575.93 244.54 575.93S279.82 587.44 313.45 587.44S349.45 578.4 382.35 578.4S416.81 579.55 451.26 579.55S487.33 584.85 520.17 584.85S555.06 556.43 589.08 556.43S625 576.94 657.98 576.94S694.02 557.51 726.89 557.51S761.42 589.86 795.8 589.86S831.71 549.75 864.71 549.75S899.86 575.61 933.61 575.61S968.72 555.54 1002.52 555.54S1037.29 585.97 1071.43 585.97S1107.24 589.24 1140.34 589.24S1175.75 576.6 1209.24 576.6S1244.05 554.48 1278.15 554.48S1314.15 589.98 1347.06 589.98S1381.53 548.16 1415.97 548.16S1451.12 587.14 1484.87 587.14S1519.98 548.52 1553.78 548.52L1540 675 L-100 675 Z"
      fill="#F0ECE5" stroke-width="0">
      <animate attributeName="d" dur="2.5s" repeatCount="indefinite"
        values="M-100 549.76C-64.21 549.28 -64.82 582.09 -31.09 582.09S3.55 550.18 37.82 550.18S72.4 576.66 106.72 576.66S142.03 586.16 175.63 586.16S210.5 575.93 244.54 575.93S279.82 587.44 313.45 587.44S349.45 578.4 382.35 578.4S416.81 579.55 451.26 579.55S487.33 584.85 520.17 584.85S555.06 556.43 589.08 556.43S625 576.94 657.98 576.94S694.02 557.51 726.89 557.51S761.42 589.86 795.8 589.86S831.71 549.75 864.71 549.75S899.86 575.61 933.61 575.61S968.72 555.54 1002.52 555.54S1037.29 585.97 1071.43 585.97S1107.24 589.24 1140.34 589.24S1175.75 576.6 1209.24 576.6S1244.05 554.48 1278.15 554.48S1314.15 589.98 1347.06 589.98S1381.53 548.16 1415.97 548.16S1451.12 587.14 1484.87 587.14S1519.98 548.52 1553.78 548.52L1540 675 L-100 675 Z;M-100 550.97C-64.6 554.99 -63.93 580.47 -31.09 580.47S4.83 551.4 37.82 551.4S72.28 549.25 106.72 549.25S142.38 544.79 175.63 544.79S210.78 580.76 244.54 580.76S280.35 550.95 313.45 550.95S347.92 583.42 382.35 583.42S417.85 550.27 451.26 550.27S487.09 575.54 520.17 575.54S554.75 557.79 589.08 557.79S623.77 588.92 657.98 588.92S692.67 558.83 726.89 558.83S761.81 579.49 795.8 579.49S831.71 557.78 864.71 557.78S900.02 543.72 933.61 543.72S969.7 548.1 1002.52 548.1S1037.27 544.38 1071.43 544.38S1105.95 580.02 1140.34 580.02S1175.02 581.67 1209.24 581.67S1244.93 543.74 1278.15 543.74S1313.57 587.01 1347.06 587.01S1383.02 553.61 1415.97 553.61S1451.8 588.74 1484.87 588.74S1519.35 556.3 1553.78 556.3L1540 675 L-100 675 Z;M-100 549.76C-64.21 549.28 -64.82 582.09 -31.09 582.09S3.55 550.18 37.82 550.18S72.4 576.66 106.72 576.66S142.03 586.16 175.63 586.16S210.5 575.93 244.54 575.93S279.82 587.44 313.45 587.44S349.45 578.4 382.35 578.4S416.81 579.55 451.26 579.55S487.33 584.85 520.17 584.85S555.06 556.43 589.08 556.43S625 576.94 657.98 576.94S694.02 557.51 726.89 557.51S761.42 589.86 795.8 589.86S831.71 549.75 864.71 549.75S899.86 575.61 933.61 575.61S968.72 555.54 1002.52 555.54S1037.29 585.97 1071.43 585.97S1107.24 589.24 1140.34 589.24S1175.75 576.6 1209.24 576.6S1244.05 554.48 1278.15 554.48S1314.15 589.98 1347.06 589.98S1381.53 548.16 1415.97 548.16S1451.12 587.14 1484.87 587.14S1519.98 548.52 1553.78 548.52L1540 675 L-100 675 Z">
      </animate>
      <animateTransform attributeName="transform" type="translate" dur="2.5s" begin="-2.25s" repeatCount="indefinite"
        values="0;10;0" calcMode="spline" keySplines="0.3 0 0.7 1;0.3 0 0.7 1"></animateTransform>
    </path>
  </g>
</svg>