<svg xmlns="http://www.w3.org/2000/svg" xmlns:xlink="http://www.w3.org/1999/xlink" style="margin:auto;background:#161a30;display:block;z-index:1;position:relative" width="1440" height="150" preserveAspectRatio="xMidYMid" viewBox="0 0 1440 150">
<g transform="translate(720,75) scale(1,1) translate(-720,-75)"><path d="M-100 87.85C-73.21 89.13 -73.51 87.41 -47.1 87.41S-20.51 90.07 5.81 90.07S32.45 88.94 58.71 88.94S85.23 88.85 111.61 88.85S138.26 88.3 164.52 88.3S191.19 88.09 217.42 88.09S243.95 87.24 270.32 87.24S296.9 87.93 323.23 87.93S349.92 87.6 376.13 87.6S402.8 87.03 429.03 87.03S455.86 87.44 481.94 87.44S508.7 88.07 534.84 88.07S561.46 88.63 587.74 88.63S614.38 88.1 640.65 88.1S667.26 88.87 693.55 88.87S720.09 87.75 746.45 87.75S773.07 87.52 799.35 87.52S825.97 88.75 852.26 88.75S879 90.74 905.16 90.74S931.95 88.99 958.06 88.99S984.52 88.53 1010.97 88.53S1037.62 89.19 1063.87 89.19S1090.42 88.02 1116.77 88.02S1143.55 88.48 1169.68 88.48S1196.36 89.25 1222.58 89.25S1249.14 88.13 1275.48 88.13S1302.15 90.56 1328.39 90.56S1354.98 88.67 1381.29 88.67S1408.08 89.01 1434.19 89.01S1460.69 87.14 1487.1 87.14S1513.59 89.8 1540 89.8S1566.65 87.55 1592.9 87.55L1540 150 L-100 150 Z" fill="#161a30" stroke-width="0">
  <animate attributeName="d" dur="25s" repeatCount="indefinite" values="M-100 87.85C-73.21 89.13 -73.51 87.41 -47.1 87.41S-20.51 90.07 5.81 90.07S32.45 88.94 58.71 88.94S85.23 88.85 111.61 88.85S138.26 88.3 164.52 88.3S191.19 88.09 217.42 88.09S243.95 87.24 270.32 87.24S296.9 87.93 323.23 87.93S349.92 87.6 376.13 87.6S402.8 87.03 429.03 87.03S455.86 87.44 481.94 87.44S508.7 88.07 534.84 88.07S561.46 88.63 587.74 88.63S614.38 88.1 640.65 88.1S667.26 88.87 693.55 88.87S720.09 87.75 746.45 87.75S773.07 87.52 799.35 87.52S825.97 88.75 852.26 88.75S879 90.74 905.16 90.74S931.95 88.99 958.06 88.99S984.52 88.53 1010.97 88.53S1037.62 89.19 1063.87 89.19S1090.42 88.02 1116.77 88.02S1143.55 88.48 1169.68 88.48S1196.36 89.25 1222.58 89.25S1249.14 88.13 1275.48 88.13S1302.15 90.56 1328.39 90.56S1354.98 88.67 1381.29 88.67S1408.08 89.01 1434.19 89.01S1460.69 87.14 1487.1 87.14S1513.59 89.8 1540 89.8S1566.65 87.55 1592.9 87.55L1540 150 L-100 150 Z;M-100 89.45C-73.5 90.49 -73.43 89.24 -47.1 89.24S-20.37 89.41 5.81 89.41S32.4 87.67 58.71 87.67S85.5 90.33 111.61 90.33S138.21 88.61 164.52 88.61S191.14 88.18 217.42 88.18S243.92 88.32 270.32 88.32S296.94 90.61 323.23 90.61S349.95 90 376.13 90S402.77 87.08 429.03 87.08S455.68 87.4 481.94 87.4S508.49 89.99 534.84 89.99S561.32 87.7 587.74 87.7S614.48 89.77 640.65 89.77S667.27 87.37 693.55 87.37S720.12 89.71 746.45 89.71S772.93 87.47 799.35 87.47S826.01 89.9 852.26 89.9S878.74 88.42 905.16 88.42S931.62 88.23 958.06 88.23S984.55 87.52 1010.97 87.52S1037.43 89.51 1063.87 89.51S1090.4 89.91 1116.77 89.91S1143.37 87.46 1169.68 87.46S1196.32 87.65 1222.58 87.65S1249.05 89.61 1275.48 89.61S1302.04 88.91 1328.39 88.91S1355.17 90.56 1381.29 90.56S1407.97 88.94 1434.19 88.94S1460.92 89.93 1487.1 89.93S1513.61 90.58 1540 90.58S1566.46 87.02 1592.9 87.02L1540 150 L-100 150 Z;M-100 87.85C-73.21 89.13 -73.51 87.41 -47.1 87.41S-20.51 90.07 5.81 90.07S32.45 88.94 58.71 88.94S85.23 88.85 111.61 88.85S138.26 88.3 164.52 88.3S191.19 88.09 217.42 88.09S243.95 87.24 270.32 87.24S296.9 87.93 323.23 87.93S349.92 87.6 376.13 87.6S402.8 87.03 429.03 87.03S455.86 87.44 481.94 87.44S508.7 88.07 534.84 88.07S561.46 88.63 587.74 88.63S614.38 88.1 640.65 88.1S667.26 88.87 693.55 88.87S720.09 87.75 746.45 87.75S773.07 87.52 799.35 87.52S825.97 88.75 852.26 88.75S879 90.74 905.16 90.74S931.95 88.99 958.06 88.99S984.52 88.53 1010.97 88.53S1037.62 89.19 1063.87 89.19S1090.42 88.02 1116.77 88.02S1143.55 88.48 1169.68 88.48S1196.36 89.25 1222.58 89.25S1249.14 88.13 1275.48 88.13S1302.15 90.56 1328.39 90.56S1354.98 88.67 1381.29 88.67S1408.08 89.01 1434.19 89.01S1460.69 87.14 1487.1 87.14S1513.59 89.8 1540 89.8S1566.65 87.55 1592.9 87.55L1540 150 L-100 150 Z"></animate>
  <animateTransform attributeName="transform" type="translate" dur="25s" begin="0s" repeatCount="indefinite" values="0;10;0" calcMode="spline" keySplines="0.3 0 0.7 1;0.3 0 0.7 1"></animateTransform>
</path><path d="M-100 91.16C-72.52 93.83 -72.52 93.09 -45.7 93.09S-18.28 93.23 8.61 93.23S36.07 92.45 62.91 92.45S90.27 94.02 117.22 94.02S144.4 92.08 171.52 92.08S198.77 94.7 225.83 94.7S253.04 92.55 280.13 92.55S307.33 90.91 334.44 90.91S361.65 93.58 388.74 93.58S416.14 94.4 443.05 94.4S470.41 91.61 497.35 91.61S524.88 93.84 551.66 93.84S578.81 91.81 605.96 91.81S633.39 92.36 660.26 92.36S687.77 94.26 714.57 94.26S742.09 91.55 768.87 91.55S796.22 95.06 823.18 95.06S850.53 92.49 877.48 92.49S904.91 94.05 931.79 94.05S958.96 94.2 986.09 94.2S1013.29 92.38 1040.4 92.38S1067.65 94.66 1094.7 94.66S1122.2 95.13 1149.01 95.13S1176.48 92.12 1203.31 92.12S1230.72 94.62 1257.62 94.62S1284.98 92.97 1311.92 92.97S1339.15 94.53 1366.23 94.53S1393.49 91.71 1420.53 91.71S1447.98 92.17 1474.83 92.17S1502.05 92.32 1529.14 92.32S1556.41 93.51 1583.44 93.51L1540 150 L-100 150 Z" fill="#1e2e41" stroke-width="0">
  <animate attributeName="d" dur="22.5s" repeatCount="indefinite" values="M-100 91.16C-72.52 93.83 -72.52 93.09 -45.7 93.09S-18.28 93.23 8.61 93.23S36.07 92.45 62.91 92.45S90.27 94.02 117.22 94.02S144.4 92.08 171.52 92.08S198.77 94.7 225.83 94.7S253.04 92.55 280.13 92.55S307.33 90.91 334.44 90.91S361.65 93.58 388.74 93.58S416.14 94.4 443.05 94.4S470.41 91.61 497.35 91.61S524.88 93.84 551.66 93.84S578.81 91.81 605.96 91.81S633.39 92.36 660.26 92.36S687.77 94.26 714.57 94.26S742.09 91.55 768.87 91.55S796.22 95.06 823.18 95.06S850.53 92.49 877.48 92.49S904.91 94.05 931.79 94.05S958.96 94.2 986.09 94.2S1013.29 92.38 1040.4 92.38S1067.65 94.66 1094.7 94.66S1122.2 95.13 1149.01 95.13S1176.48 92.12 1203.31 92.12S1230.72 94.62 1257.62 94.62S1284.98 92.97 1311.92 92.97S1339.15 94.53 1366.23 94.53S1393.49 91.71 1420.53 91.71S1447.98 92.17 1474.83 92.17S1502.05 92.32 1529.14 92.32S1556.41 93.51 1583.44 93.51L1540 150 L-100 150 Z;M-100 92.16C-72.68 93.76 -72.79 93.65 -45.7 93.65S-18.36 90.76 8.61 90.76S36 94.47 62.91 94.47S90.08 94.47 117.22 94.47S144.68 92.51 171.52 92.51S198.94 92.96 225.83 92.96S253.02 92.96 280.13 92.96S307.31 91.81 334.44 91.81S361.84 92.79 388.74 92.79S416.24 92.42 443.05 92.42S470.36 92.56 497.35 92.56S524.7 92.27 551.66 92.27S579.16 93.9 605.96 93.9S633.44 91.66 660.26 91.66S687.42 92.75 714.57 92.75S741.94 92.95 768.87 92.95S796.35 93.13 823.18 93.13S850.51 91.23 877.48 91.23S904.64 92.4 931.79 92.4S959 93.58 986.09 93.58S1013.57 92.45 1040.4 92.45S1067.8 91.29 1094.7 91.29S1122.12 93.77 1149.01 93.77S1176.27 93.81 1203.31 93.81S1230.49 95.01 1257.62 95.01S1285.1 91.47 1311.92 91.47S1339.37 93.24 1366.23 93.24S1393.61 90.8 1420.53 90.8S1447.71 93.01 1474.83 93.01S1502.1 91.68 1529.14 91.68S1556.58 92.53 1583.44 92.53L1540 150 L-100 150 Z;M-100 91.16C-72.52 93.83 -72.52 93.09 -45.7 93.09S-18.28 93.23 8.61 93.23S36.07 92.45 62.91 92.45S90.27 94.02 117.22 94.02S144.4 92.08 171.52 92.08S198.77 94.7 225.83 94.7S253.04 92.55 280.13 92.55S307.33 90.91 334.44 90.91S361.65 93.58 388.74 93.58S416.14 94.4 443.05 94.4S470.41 91.61 497.35 91.61S524.88 93.84 551.66 93.84S578.81 91.81 605.96 91.81S633.39 92.36 660.26 92.36S687.77 94.26 714.57 94.26S742.09 91.55 768.87 91.55S796.22 95.06 823.18 95.06S850.53 92.49 877.48 92.49S904.91 94.05 931.79 94.05S958.96 94.2 986.09 94.2S1013.29 92.38 1040.4 92.38S1067.65 94.66 1094.7 94.66S1122.2 95.13 1149.01 95.13S1176.48 92.12 1203.31 92.12S1230.72 94.62 1257.62 94.62S1284.98 92.97 1311.92 92.97S1339.15 94.53 1366.23 94.53S1393.49 91.71 1420.53 91.71S1447.98 92.17 1474.83 92.17S1502.05 92.32 1529.14 92.32S1556.41 93.51 1583.44 93.51L1540 150 L-100 150 Z"></animate>
  <animateTransform attributeName="transform" type="translate" dur="22.5s" begin="-2.25s" repeatCount="indefinite" values="0;10;0" calcMode="spline" keySplines="0.3 0 0.7 1;0.3 0 0.7 1"></animateTransform>
</path><path d="M-100 96.58C-71.96 98.39 -71.8 97.38 -44.22 97.38S-16.07 95.52 11.56 95.52S39.75 97.23 67.35 97.23S95.29 95.51 123.13 95.51S151.24 98.66 178.91 98.66S206.86 95.94 234.69 95.94S262.75 98.95 290.48 98.95S318.37 94.84 346.26 94.84S374.16 96.23 402.04 96.23S430.11 94.81 457.82 94.81S485.84 97.1 513.61 97.1S541.83 95.29 569.39 95.29S597.62 98.19 625.17 98.19S653.16 96.72 680.95 96.72S708.9 97.61 736.73 97.61S764.74 95.68 792.52 95.68S820.44 96.37 848.3 96.37S876.41 97.39 904.08 97.39S932 99.29 959.86 99.29S987.86 97.55 1015.65 97.55S1043.85 98.68 1071.43 98.68S1099.6 95.31 1127.21 95.31S1155.21 97.25 1182.99 97.25S1211.06 96.05 1238.78 96.05S1267.04 99.2 1294.56 99.2S1322.57 97.92 1350.34 97.92S1378.25 97.79 1406.12 97.79S1434.36 96.58 1461.9 96.58S1489.83 95 1517.69 95S1545.7 95.57 1573.47 95.57L1540 150 L-100 150 Z" fill="#2a4251" stroke-width="0">
  <animate attributeName="d" dur="20s" repeatCount="indefinite" values="M-100 96.58C-71.96 98.39 -71.8 97.38 -44.22 97.38S-16.07 95.52 11.56 95.52S39.75 97.23 67.35 97.23S95.29 95.51 123.13 95.51S151.24 98.66 178.91 98.66S206.86 95.94 234.69 95.94S262.75 98.95 290.48 98.95S318.37 94.84 346.26 94.84S374.16 96.23 402.04 96.23S430.11 94.81 457.82 94.81S485.84 97.1 513.61 97.1S541.83 95.29 569.39 95.29S597.62 98.19 625.17 98.19S653.16 96.72 680.95 96.72S708.9 97.61 736.73 97.61S764.74 95.68 792.52 95.68S820.44 96.37 848.3 96.37S876.41 97.39 904.08 97.39S932 99.29 959.86 99.29S987.86 97.55 1015.65 97.55S1043.85 98.68 1071.43 98.68S1099.6 95.31 1127.21 95.31S1155.21 97.25 1182.99 97.25S1211.06 96.05 1238.78 96.05S1267.04 99.2 1294.56 99.2S1322.57 97.92 1350.34 97.92S1378.25 97.79 1406.12 97.79S1434.36 96.58 1461.9 96.58S1489.83 95 1517.69 95S1545.7 95.57 1573.47 95.57L1540 150 L-100 150 Z;M-100 96.15C-71.77 94.91 -72.08 96.3 -44.22 96.3S-16.16 94.57 11.56 94.57S39.72 98.29 67.35 98.29S95.26 94.62 123.13 94.62S151.23 96.86 178.91 96.86S206.88 95.92 234.69 95.92S262.96 98.2 290.48 98.2S318.6 97.1 346.26 97.1S374.28 94.91 402.04 94.91S430 95.87 457.82 95.87S485.72 97.71 513.61 97.71S541.59 96.21 569.39 96.21S597.45 97.11 625.17 97.11S653.11 96.93 680.95 96.93S709.22 98.57 736.73 98.57S764.91 97.14 792.52 97.14S820.63 97.28 848.3 97.28S876.47 97.72 904.08 97.72S932 99.55 959.86 99.55S987.9 94.91 1015.65 94.91S1043.86 96.29 1071.43 96.29S1099.55 97.28 1127.21 97.28S1155.33 96.46 1182.99 96.46S1210.91 95.89 1238.78 95.89S1266.68 98.77 1294.56 98.77S1322.79 97.72 1350.34 97.72S1378.35 98.13 1406.12 98.13S1434.08 97.48 1461.9 97.48S1490.1 99.63 1517.69 99.63S1545.94 96.17 1573.47 96.17L1540 150 L-100 150 Z;M-100 96.58C-71.96 98.39 -71.8 97.38 -44.22 97.38S-16.07 95.52 11.56 95.52S39.75 97.23 67.35 97.23S95.29 95.51 123.13 95.51S151.24 98.66 178.91 98.66S206.86 95.94 234.69 95.94S262.75 98.95 290.48 98.95S318.37 94.84 346.26 94.84S374.16 96.23 402.04 96.23S430.11 94.81 457.82 94.81S485.84 97.1 513.61 97.1S541.83 95.29 569.39 95.29S597.62 98.19 625.17 98.19S653.16 96.72 680.95 96.72S708.9 97.61 736.73 97.61S764.74 95.68 792.52 95.68S820.44 96.37 848.3 96.37S876.41 97.39 904.08 97.39S932 99.29 959.86 99.29S987.86 97.55 1015.65 97.55S1043.85 98.68 1071.43 98.68S1099.6 95.31 1127.21 95.31S1155.21 97.25 1182.99 97.25S1211.06 96.05 1238.78 96.05S1267.04 99.2 1294.56 99.2S1322.57 97.92 1350.34 97.92S1378.25 97.79 1406.12 97.79S1434.36 96.58 1461.9 96.58S1489.83 95 1517.69 95S1545.7 95.57 1573.47 95.57L1540 150 L-100 150 Z"></animate>
  <animateTransform attributeName="transform" type="translate" dur="20s" begin="-4s" repeatCount="indefinite" values="0;10;0" calcMode="spline" keySplines="0.3 0 0.7 1;0.3 0 0.7 1"></animateTransform>
</path><path d="M-100 100.88C-71 100.44 -71.1 102.8 -42.66 102.8S-13.89 103.89 14.69 103.89S43.72 102.22 72.03 102.22S100.98 101.53 129.37 101.53S158.12 102.81 186.71 102.81S215.62 100.4 244.06 100.4S272.84 102.67 301.4 102.67S330.38 101.68 358.74 101.68S387.68 103.96 416.08 103.96S444.85 100.73 473.43 100.73S502.2 100.94 530.77 100.94S559.69 98.46 588.11 98.46S616.86 103.06 645.45 103.06S674.14 98.98 702.8 98.98S731.72 103.84 760.14 103.84S788.96 100.9 817.48 100.9S846.26 102.79 874.83 102.79S903.62 100.93 932.17 100.93S961.13 101.71 989.51 101.71S1018.33 99.22 1046.85 99.22S1075.88 102.75 1104.2 102.75S1132.93 99.36 1161.54 99.36S1190.5 103 1218.88 103S1247.65 99.7 1276.22 99.7S1305.08 100.9 1333.57 100.9S1362.42 99.6 1390.91 99.6S1419.69 103.83 1448.25 103.83S1477.18 101.5 1505.59 101.5S1534.29 101.81 1562.94 101.81L1540 150 L-100 150 Z" fill="#3b575f" stroke-width="0">
  <animate attributeName="d" dur="17.5s" repeatCount="indefinite" values="M-100 100.88C-71 100.44 -71.1 102.8 -42.66 102.8S-13.89 103.89 14.69 103.89S43.72 102.22 72.03 102.22S100.98 101.53 129.37 101.53S158.12 102.81 186.71 102.81S215.62 100.4 244.06 100.4S272.84 102.67 301.4 102.67S330.38 101.68 358.74 101.68S387.68 103.96 416.08 103.96S444.85 100.73 473.43 100.73S502.2 100.94 530.77 100.94S559.69 98.46 588.11 98.46S616.86 103.06 645.45 103.06S674.14 98.98 702.8 98.98S731.72 103.84 760.14 103.84S788.96 100.9 817.48 100.9S846.26 102.79 874.83 102.79S903.62 100.93 932.17 100.93S961.13 101.71 989.51 101.71S1018.33 99.22 1046.85 99.22S1075.88 102.75 1104.2 102.75S1132.93 99.36 1161.54 99.36S1190.5 103 1218.88 103S1247.65 99.7 1276.22 99.7S1305.08 100.9 1333.57 100.9S1362.42 99.6 1390.91 99.6S1419.69 103.83 1448.25 103.83S1477.18 101.5 1505.59 101.5S1534.29 101.81 1562.94 101.81L1540 150 L-100 150 Z;M-100 99.57C-71.17 101.83 -71.3 100.04 -42.66 100.04S-13.92 101.96 14.69 101.96S43.7 102.65 72.03 102.65S100.73 100.47 129.37 100.47S158.1 101.34 186.71 101.34S215.6 99.35 244.06 99.35S272.84 101.62 301.4 101.62S330.37 99.7 358.74 99.7S387.61 101.81 416.08 101.81S444.86 98.84 473.43 98.84S502.45 100.8 530.77 100.8S559.48 103.56 588.11 103.56S616.79 103.91 645.45 103.91S674.4 98.37 702.8 98.37S731.53 102.87 760.14 102.87S789.1 99.21 817.48 99.21S846.34 103.71 874.83 103.71S903.63 101.14 932.17 101.14S960.99 104.01 989.51 104.01S1018.26 101.63 1046.85 101.63S1075.77 102.5 1104.2 102.5S1133.21 98.39 1161.54 98.39S1190.4 101.09 1218.88 101.09S1247.65 99.06 1276.22 99.06S1305.25 103.31 1333.57 103.31S1362.35 100.82 1390.91 100.82S1419.59 101.26 1448.25 101.26S1476.98 98.33 1505.59 98.33S1534.61 102.94 1562.94 102.94L1540 150 L-100 150 Z;M-100 100.88C-71 100.44 -71.1 102.8 -42.66 102.8S-13.89 103.89 14.69 103.89S43.72 102.22 72.03 102.22S100.98 101.53 129.37 101.53S158.12 102.81 186.71 102.81S215.62 100.4 244.06 100.4S272.84 102.67 301.4 102.67S330.38 101.68 358.74 101.68S387.68 103.96 416.08 103.96S444.85 100.73 473.43 100.73S502.2 100.94 530.77 100.94S559.69 98.46 588.11 98.46S616.86 103.06 645.45 103.06S674.14 98.98 702.8 98.98S731.72 103.84 760.14 103.84S788.96 100.9 817.48 100.9S846.26 102.79 874.83 102.79S903.62 100.93 932.17 100.93S961.13 101.71 989.51 101.71S1018.33 99.22 1046.85 99.22S1075.88 102.75 1104.2 102.75S1132.93 99.36 1161.54 99.36S1190.5 103 1218.88 103S1247.65 99.7 1276.22 99.7S1305.08 100.9 1333.57 100.9S1362.42 99.6 1390.91 99.6S1419.69 103.83 1448.25 103.83S1477.18 101.5 1505.59 101.5S1534.29 101.81 1562.94 101.81L1540 150 L-100 150 Z"></animate>
  <animateTransform attributeName="transform" type="translate" dur="17.5s" begin="-5.25s" repeatCount="indefinite" values="0;10;0" calcMode="spline" keySplines="0.3 0 0.7 1;0.3 0 0.7 1"></animateTransform>
</path><path d="M-100 103.28C-70.19 102.49 -70.46 106.32 -41.01 106.32S-11.36 102.53 17.99 102.53S47.59 107.15 76.98 107.15S106.49 103.28 135.97 103.28S165.57 106.09 194.96 106.09S224.68 102.31 253.96 102.31S283.71 105.66 312.95 105.66S342.61 103.06 371.94 103.06S401.69 106.93 430.94 106.93S460.69 102.21 489.93 102.21S519.59 107.39 548.92 107.39S578.79 108.38 607.91 108.38S637.48 105.98 666.91 105.98S696.5 103.63 725.9 103.63S755.48 106.21 784.89 106.21S814.74 102.87 843.88 102.87S873.45 108.16 902.88 108.16S932.46 102.43 961.87 102.43S991.65 108.32 1020.86 108.32S1050.48 105.69 1079.86 105.69S1109.67 105.42 1138.85 105.42S1168.43 102.07 1197.84 102.07S1227.38 103.74 1256.83 103.74S1286.59 103.39 1315.83 103.39S1345.6 107.86 1374.82 107.86S1404.36 103.19 1433.81 103.19S1463.4 105.85 1492.81 105.85S1522.58 107.28 1551.8 107.28L1540 150 L-100 150 Z" fill="#506c6d" stroke-width="0">
  <animate attributeName="d" dur="15s" repeatCount="indefinite" values="M-100 103.28C-70.19 102.49 -70.46 106.32 -41.01 106.32S-11.36 102.53 17.99 102.53S47.59 107.15 76.98 107.15S106.49 103.28 135.97 103.28S165.57 106.09 194.96 106.09S224.68 102.31 253.96 102.31S283.71 105.66 312.95 105.66S342.61 103.06 371.94 103.06S401.69 106.93 430.94 106.93S460.69 102.21 489.93 102.21S519.59 107.39 548.92 107.39S578.79 108.38 607.91 108.38S637.48 105.98 666.91 105.98S696.5 103.63 725.9 103.63S755.48 106.21 784.89 106.21S814.74 102.87 843.88 102.87S873.45 108.16 902.88 108.16S932.46 102.43 961.87 102.43S991.65 108.32 1020.86 108.32S1050.48 105.69 1079.86 105.69S1109.67 105.42 1138.85 105.42S1168.43 102.07 1197.84 102.07S1227.38 103.74 1256.83 103.74S1286.59 103.39 1315.83 103.39S1345.6 107.86 1374.82 107.86S1404.36 103.19 1433.81 103.19S1463.4 105.85 1492.81 105.85S1522.58 107.28 1551.8 107.28L1540 150 L-100 150 Z;M-100 103.12C-70.43 102.32 -70.21 106.33 -41.01 106.33S-11.21 104.95 17.99 104.95S47.83 106.24 76.98 106.24S106.76 102.66 135.97 102.66S165.64 107.6 194.96 107.6S224.47 104.77 253.96 104.77S283.64 106.95 312.95 106.95S342.65 104.4 371.94 104.4S401.5 108.18 430.94 108.18S460.49 103.58 489.93 103.58S519.62 102.67 548.92 102.67S578.64 105.25 607.91 105.25S637.52 105.42 666.91 105.42S696.74 105.12 725.9 105.12S755.47 108.57 784.89 108.57S814.72 103.68 843.88 103.68S873.65 108.35 902.88 108.35S932.61 105.05 961.87 105.05S991.59 106.44 1020.86 106.44S1050.71 102.07 1079.86 102.07S1109.48 106.37 1138.85 106.37S1168.53 104.5 1197.84 104.5S1227.55 108.24 1256.83 108.24S1286.41 102.72 1315.83 102.72S1345.51 107.23 1374.82 107.23S1404.48 103.62 1433.81 103.62S1463.38 108.01 1492.81 108.01S1522.48 104.9 1551.8 104.9L1540 150 L-100 150 Z;M-100 103.28C-70.19 102.49 -70.46 106.32 -41.01 106.32S-11.36 102.53 17.99 102.53S47.59 107.15 76.98 107.15S106.49 103.28 135.97 103.28S165.57 106.09 194.96 106.09S224.68 102.31 253.96 102.31S283.71 105.66 312.95 105.66S342.61 103.06 371.94 103.06S401.69 106.93 430.94 106.93S460.69 102.21 489.93 102.21S519.59 107.39 548.92 107.39S578.79 108.38 607.91 108.38S637.48 105.98 666.91 105.98S696.5 103.63 725.9 103.63S755.48 106.21 784.89 106.21S814.74 102.87 843.88 102.87S873.45 108.16 902.88 108.16S932.46 102.43 961.87 102.43S991.65 108.32 1020.86 108.32S1050.48 105.69 1079.86 105.69S1109.67 105.42 1138.85 105.42S1168.43 102.07 1197.84 102.07S1227.38 103.74 1256.83 103.74S1286.59 103.39 1315.83 103.39S1345.6 107.86 1374.82 107.86S1404.36 103.19 1433.81 103.19S1463.4 105.85 1492.81 105.85S1522.58 107.28 1551.8 107.28L1540 150 L-100 150 Z"></animate>
  <animateTransform attributeName="transform" type="translate" dur="15s" begin="-6s" repeatCount="indefinite" values="0;10;0" calcMode="spline" keySplines="0.3 0 0.7 1;0.3 0 0.7 1"></animateTransform>
</path><path d="M-100 108.78C-69.41 107.68 -69.42 111.16 -39.26 111.16S-8.72 109.43 21.48 109.43S51.88 110.37 82.22 110.37S112.84 108.92 142.96 108.92S173.52 110.87 203.7 110.87S234.44 108.15 264.44 108.15S294.88 111.86 325.19 111.86S355.8 113.11 385.93 113.11S416.47 111.23 446.67 111.23S477.09 108.81 507.41 108.81S538.04 110.34 568.15 110.34S598.75 107.47 628.89 107.47S659.59 112.23 689.63 112.23S720.11 109.53 750.37 109.53S781.05 108.91 811.11 108.91S841.83 108.31 871.85 108.31S902.58 106.24 932.59 106.24S963.23 105.9 993.33 105.9S1023.99 110.29 1054.07 110.29S1084.79 107.38 1114.81 107.38S1145.56 109.98 1175.56 109.98S1206.02 105.8 1236.3 105.8S1266.84 110.83 1297.04 110.83S1327.67 108.56 1357.78 108.56S1388.24 109.8 1418.52 109.8S1449.2 108.56 1479.26 108.56S1509.64 110.55 1540 110.55S1570.7 106.66 1600.74 106.66L1540 150 L-100 150 Z" fill="#68807c" stroke-width="0">
  <animate attributeName="d" dur="12.5s" repeatCount="indefinite" values="M-100 108.78C-69.41 107.68 -69.42 111.16 -39.26 111.16S-8.72 109.43 21.48 109.43S51.88 110.37 82.22 110.37S112.84 108.92 142.96 108.92S173.52 110.87 203.7 110.87S234.44 108.15 264.44 108.15S294.88 111.86 325.19 111.86S355.8 113.11 385.93 113.11S416.47 111.23 446.67 111.23S477.09 108.81 507.41 108.81S538.04 110.34 568.15 110.34S598.75 107.47 628.89 107.47S659.59 112.23 689.63 112.23S720.11 109.53 750.37 109.53S781.05 108.91 811.11 108.91S841.83 108.31 871.85 108.31S902.58 106.24 932.59 106.24S963.23 105.9 993.33 105.9S1023.99 110.29 1054.07 110.29S1084.79 107.38 1114.81 107.38S1145.56 109.98 1175.56 109.98S1206.02 105.8 1236.3 105.8S1266.84 110.83 1297.04 110.83S1327.67 108.56 1357.78 108.56S1388.24 109.8 1418.52 109.8S1449.2 108.56 1479.26 108.56S1509.64 110.55 1540 110.55S1570.7 106.66 1600.74 106.66L1540 150 L-100 150 Z;M-100 108.94C-69.57 107.77 -69.47 109.93 -39.26 109.93S-8.75 106.21 21.48 106.21S52.12 109.6 82.22 109.6S112.69 106.53 142.96 106.53S173.51 112.77 203.7 112.77S234.38 106.24 264.44 106.24S294.88 111.13 325.19 111.13S355.66 107.15 385.93 107.15S416.35 113.15 446.67 113.15S477.3 106.81 507.41 106.81S537.81 111.29 568.15 111.29S598.84 107.48 628.89 107.48S659.35 111.73 689.63 111.73S720.19 108.67 750.37 108.67S780.82 111.53 811.11 111.53S841.5 106.25 871.85 106.25S902.57 112.57 932.59 112.57S963.08 107.47 993.33 107.47S1023.82 110.9 1054.07 110.9S1084.75 107.28 1114.81 107.28S1145.28 110.66 1175.56 110.66S1206.19 106.5 1236.3 106.5S1266.76 111.2 1297.04 111.2S1327.56 107.46 1357.78 107.46S1388.19 110.3 1418.52 110.3S1449.25 109 1479.26 109S1509.84 111.04 1540 111.04S1570.7 107.34 1600.74 107.34L1540 150 L-100 150 Z;M-100 108.78C-69.41 107.68 -69.42 111.16 -39.26 111.16S-8.72 109.43 21.48 109.43S51.88 110.37 82.22 110.37S112.84 108.92 142.96 108.92S173.52 110.87 203.7 110.87S234.44 108.15 264.44 108.15S294.88 111.86 325.19 111.86S355.8 113.11 385.93 113.11S416.47 111.23 446.67 111.23S477.09 108.81 507.41 108.81S538.04 110.34 568.15 110.34S598.75 107.47 628.89 107.47S659.59 112.23 689.63 112.23S720.11 109.53 750.37 109.53S781.05 108.91 811.11 108.91S841.83 108.31 871.85 108.31S902.58 106.24 932.59 106.24S963.23 105.9 993.33 105.9S1023.99 110.29 1054.07 110.29S1084.79 107.38 1114.81 107.38S1145.56 109.98 1175.56 109.98S1206.02 105.8 1236.3 105.8S1266.84 110.83 1297.04 110.83S1327.67 108.56 1357.78 108.56S1388.24 109.8 1418.52 109.8S1449.2 108.56 1479.26 108.56S1509.64 110.55 1540 110.55S1570.7 106.66 1600.74 106.66L1540 150 L-100 150 Z"></animate>
  <animateTransform attributeName="transform" type="translate" dur="12.5s" begin="-6.25s" repeatCount="indefinite" values="0;10;0" calcMode="spline" keySplines="0.3 0 0.7 1;0.3 0 0.7 1"></animateTransform>
</path><path d="M-100 112.51C-68.65 110.2 -68.35 114.15 -37.4 114.15S-5.95 110.47 25.19 110.47S56.76 109.73 87.79 109.73S119.34 109.81 150.38 109.81S181.93 115.15 212.98 115.15S244.52 113.21 275.57 113.21S306.95 111.92 338.17 111.92S369.66 113.09 400.76 113.09S432.35 114.19 463.36 114.19S494.83 110.52 525.95 110.52S557.32 115.94 588.55 115.94S619.88 114.73 651.15 114.73S682.55 116.03 713.74 116.03S745.06 112.89 776.34 112.89S808 117.14 838.93 117.14S870.28 110.95 901.53 110.95S933.06 115.2 964.12 115.2S995.47 109.79 1026.72 109.79S1058.11 116.88 1089.31 116.88S1120.97 113.23 1151.91 113.23S1183.33 115.23 1214.5 115.23S1245.91 116.52 1277.1 116.52S1308.77 114.63 1339.69 114.63S1371.09 116.33 1402.29 116.33S1433.7 114.01 1464.89 114.01S1496.45 109.9 1527.48 109.9S1559.03 115.79 1590.08 115.79L1540 150 L-100 150 Z" fill="#82958c" stroke-width="0">
  <animate attributeName="d" dur="10s" repeatCount="indefinite" values="M-100 112.51C-68.65 110.2 -68.35 114.15 -37.4 114.15S-5.95 110.47 25.19 110.47S56.76 109.73 87.79 109.73S119.34 109.81 150.38 109.81S181.93 115.15 212.98 115.15S244.52 113.21 275.57 113.21S306.95 111.92 338.17 111.92S369.66 113.09 400.76 113.09S432.35 114.19 463.36 114.19S494.83 110.52 525.95 110.52S557.32 115.94 588.55 115.94S619.88 114.73 651.15 114.73S682.55 116.03 713.74 116.03S745.06 112.89 776.34 112.89S808 117.14 838.93 117.14S870.28 110.95 901.53 110.95S933.06 115.2 964.12 115.2S995.47 109.79 1026.72 109.79S1058.11 116.88 1089.31 116.88S1120.97 113.23 1151.91 113.23S1183.33 115.23 1214.5 115.23S1245.91 116.52 1277.1 116.52S1308.77 114.63 1339.69 114.63S1371.09 116.33 1402.29 116.33S1433.7 114.01 1464.89 114.01S1496.45 109.9 1527.48 109.9S1559.03 115.79 1590.08 115.79L1540 150 L-100 150 Z;M-100 110.69C-68.48 112.06 -68.57 114.41 -37.4 114.41S-5.81 110.56 25.19 110.56S56.86 112.43 87.79 112.43S119.33 111.15 150.38 111.15S181.72 116.71 212.98 116.71S244.47 112.21 275.57 112.21S307.08 115.96 338.17 115.96S369.49 111.51 400.76 111.51S432.24 117.7 463.36 117.7S494.7 112.32 525.95 112.32S557.61 114.82 588.55 114.82S620.21 111.29 651.15 111.29S682.7 111.57 713.74 111.57S745.32 111.43 776.34 111.43S807.83 117.32 838.93 117.32S870.29 110.49 901.53 110.49S933.06 115.27 964.12 115.27S995.71 111.9 1026.72 111.9S1058.1 114.94 1089.31 114.94S1120.87 115.05 1151.91 115.05S1183.25 114.78 1214.5 114.78S1245.87 114.47 1277.1 114.47S1308.46 115.73 1339.69 115.73S1371.02 111.83 1402.29 111.83S1433.86 117.08 1464.89 117.08S1496.22 113.21 1527.48 113.21S1559.02 116.5 1590.08 116.5L1540 150 L-100 150 Z;M-100 112.51C-68.65 110.2 -68.35 114.15 -37.4 114.15S-5.95 110.47 25.19 110.47S56.76 109.73 87.79 109.73S119.34 109.81 150.38 109.81S181.93 115.15 212.98 115.15S244.52 113.21 275.57 113.21S306.95 111.92 338.17 111.92S369.66 113.09 400.76 113.09S432.35 114.19 463.36 114.19S494.83 110.52 525.95 110.52S557.32 115.94 588.55 115.94S619.88 114.73 651.15 114.73S682.55 116.03 713.74 116.03S745.06 112.89 776.34 112.89S808 117.14 838.93 117.14S870.28 110.95 901.53 110.95S933.06 115.2 964.12 115.2S995.47 109.79 1026.72 109.79S1058.11 116.88 1089.31 116.88S1120.97 113.23 1151.91 113.23S1183.33 115.23 1214.5 115.23S1245.91 116.52 1277.1 116.52S1308.77 114.63 1339.69 114.63S1371.09 116.33 1402.29 116.33S1433.7 114.01 1464.89 114.01S1496.45 109.9 1527.48 109.9S1559.03 115.79 1590.08 115.79L1540 150 L-100 150 Z"></animate>
  <animateTransform attributeName="transform" type="translate" dur="10s" begin="-6s" repeatCount="indefinite" values="0;10;0" calcMode="spline" keySplines="0.3 0 0.7 1;0.3 0 0.7 1"></animateTransform>
</path><path d="M-100 114.04C-67.66 116.67 -67.68 119 -35.43 119S-3.14 116.06 29.13 116.06S61.75 120.85 93.7 120.85S126.03 113.55 158.27 113.55S190.74 122.09 222.83 122.09S255.3 114.36 287.4 114.36S319.73 120.58 351.97 120.58S384.3 113.81 416.54 113.81S449.07 114.33 481.1 114.33S513.69 114.9 545.67 114.9S577.96 119.15 610.24 119.15S642.6 113.51 674.8 113.51S707.25 119.53 739.37 119.53S771.97 116.03 803.94 116.03S836.39 114.16 868.5 114.16S900.86 116.68 933.07 116.68S965.67 118.97 997.64 118.97S1029.98 114.11 1062.2 114.11S1094.67 120.58 1126.77 120.58S1159.07 113.58 1191.34 113.58S1223.72 120.14 1255.91 120.14S1288.35 114.13 1320.47 114.13S1353.07 119.05 1385.04 119.05S1417.6 116.94 1449.61 116.94S1482.04 119.73 1514.17 119.73S1546.49 122.1 1578.74 122.1L1540 150 L-100 150 Z" fill="#9eaa9e" stroke-width="0">
  <animate attributeName="d" dur="7.5s" repeatCount="indefinite" values="M-100 114.04C-67.66 116.67 -67.68 119 -35.43 119S-3.14 116.06 29.13 116.06S61.75 120.85 93.7 120.85S126.03 113.55 158.27 113.55S190.74 122.09 222.83 122.09S255.3 114.36 287.4 114.36S319.73 120.58 351.97 120.58S384.3 113.81 416.54 113.81S449.07 114.33 481.1 114.33S513.69 114.9 545.67 114.9S577.96 119.15 610.24 119.15S642.6 113.51 674.8 113.51S707.25 119.53 739.37 119.53S771.97 116.03 803.94 116.03S836.39 114.16 868.5 114.16S900.86 116.68 933.07 116.68S965.67 118.97 997.64 118.97S1029.98 114.11 1062.2 114.11S1094.67 120.58 1126.77 120.58S1159.07 113.58 1191.34 113.58S1223.72 120.14 1255.91 120.14S1288.35 114.13 1320.47 114.13S1353.07 119.05 1385.04 119.05S1417.6 116.94 1449.61 116.94S1482.04 119.73 1514.17 119.73S1546.49 122.1 1578.74 122.1L1540 150 L-100 150 Z;M-100 116.96C-67.41 114.96 -67.62 121.24 -35.43 121.24S-2.86 114.41 29.13 114.41S61.58 120.72 93.7 120.72S126.01 113.79 158.27 113.79S190.72 118.9 222.83 118.9S255.26 114.2 287.4 114.2S320.05 120.57 351.97 120.57S384.46 114.36 416.54 114.36S449.01 118.51 481.1 118.51S513.72 114.26 545.67 114.26S578.06 121.17 610.24 121.17S642.89 116.43 674.8 116.43S707.4 120.25 739.37 120.25S771.87 114.75 803.94 114.75S836.53 119.02 868.5 119.02S901.04 116.75 933.07 116.75S965.39 119.06 997.64 119.06S1030.04 115.89 1062.2 115.89S1094.76 122.13 1126.77 122.13S1159.07 116.72 1191.34 116.72S1223.7 116.86 1255.91 116.86S1288.23 115.92 1320.47 115.92S1352.91 115.93 1385.04 115.93S1417.53 115.13 1449.61 115.13S1482.13 119.33 1514.17 119.33S1546.79 116.75 1578.74 116.75L1540 150 L-100 150 Z;M-100 114.04C-67.66 116.67 -67.68 119 -35.43 119S-3.14 116.06 29.13 116.06S61.75 120.85 93.7 120.85S126.03 113.55 158.27 113.55S190.74 122.09 222.83 122.09S255.3 114.36 287.4 114.36S319.73 120.58 351.97 120.58S384.3 113.81 416.54 113.81S449.07 114.33 481.1 114.33S513.69 114.9 545.67 114.9S577.96 119.15 610.24 119.15S642.6 113.51 674.8 113.51S707.25 119.53 739.37 119.53S771.97 116.03 803.94 116.03S836.39 114.16 868.5 114.16S900.86 116.68 933.07 116.68S965.67 118.97 997.64 118.97S1029.98 114.11 1062.2 114.11S1094.67 120.58 1126.77 120.58S1159.07 113.58 1191.34 113.58S1223.72 120.14 1255.91 120.14S1288.35 114.13 1320.47 114.13S1353.07 119.05 1385.04 119.05S1417.6 116.94 1449.61 116.94S1482.04 119.73 1514.17 119.73S1546.49 122.1 1578.74 122.1L1540 150 L-100 150 Z"></animate>
  <animateTransform attributeName="transform" type="translate" dur="7.5s" begin="-5.25s" repeatCount="indefinite" values="0;10;0" calcMode="spline" keySplines="0.3 0 0.7 1;0.3 0 0.7 1"></animateTransform>
</path><path d="M-100 118.1C-66.39 117.02 -66.53 118.63 -33.33 118.63S0.01 119.86 33.33 119.86S66.75 123.23 100 123.23S133.4 118.92 166.67 118.92S200.13 126.56 233.33 126.56S266.71 119.23 300 119.23S333.35 123.08 366.67 123.08S400.09 117.92 433.33 117.92S466.73 125.92 500 125.92S533.53 120.68 566.67 120.68S600.23 126.51 633.33 126.51S666.84 118.35 700 118.35S733.66 125.9 766.67 125.9S800.13 119.71 833.33 119.71S866.73 123.73 900 123.73S933.36 119.95 966.67 119.95S1000.15 123.39 1033.33 123.39S1066.73 119.01 1100 119.01S1133.5 125.71 1166.67 125.71S1200.11 117.68 1233.33 117.68S1267.01 117.06 1300 117.06S1333.63 118.6 1366.67 118.6S1400.14 124.43 1433.33 124.43S1466.84 117.06 1500 117.06S1533.62 125.58 1566.67 125.58L1540 150 L-100 150 Z" fill="#babfb4" stroke-width="0">
  <animate attributeName="d" dur="5s" repeatCount="indefinite" values="M-100 118.1C-66.39 117.02 -66.53 118.63 -33.33 118.63S0.01 119.86 33.33 119.86S66.75 123.23 100 123.23S133.4 118.92 166.67 118.92S200.13 126.56 233.33 126.56S266.71 119.23 300 119.23S333.35 123.08 366.67 123.08S400.09 117.92 433.33 117.92S466.73 125.92 500 125.92S533.53 120.68 566.67 120.68S600.23 126.51 633.33 126.51S666.84 118.35 700 118.35S733.66 125.9 766.67 125.9S800.13 119.71 833.33 119.71S866.73 123.73 900 123.73S933.36 119.95 966.67 119.95S1000.15 123.39 1033.33 123.39S1066.73 119.01 1100 119.01S1133.5 125.71 1166.67 125.71S1200.11 117.68 1233.33 117.68S1267.01 117.06 1300 117.06S1333.63 118.6 1366.67 118.6S1400.14 124.43 1433.33 124.43S1466.84 117.06 1500 117.06S1533.62 125.58 1566.67 125.58L1540 150 L-100 150 Z;M-100 118.81C-66.5 119.69 -66.43 125.07 -33.33 125.07S0.11 117.21 33.33 117.21S66.87 118.39 100 118.39S133.45 117.47 166.67 117.47S200.06 124.5 233.33 124.5S266.76 117.57 300 117.57S333.52 123.81 366.67 123.81S400.09 120.02 433.33 120.02S466.85 124.45 500 124.45S533.65 118.96 566.67 118.96S600.34 123.19 633.33 123.19S666.87 117.05 700 117.05S733.41 120.28 766.67 120.28S800.31 118.84 833.33 118.84S866.88 125.11 900 125.11S933.62 120.15 966.67 120.15S1000.35 124.9 1033.33 124.9S1066.96 118.72 1100 118.72S1133.45 125.25 1166.67 125.25S1200.17 118.49 1233.33 118.49S1266.96 125.62 1300 125.62S1333.61 120.68 1366.67 120.68S1400.36 126.71 1433.33 126.71S1466.73 117.65 1500 117.65S1533.57 125.32 1566.67 125.32L1540 150 L-100 150 Z;M-100 118.1C-66.39 117.02 -66.53 118.63 -33.33 118.63S0.01 119.86 33.33 119.86S66.75 123.23 100 123.23S133.4 118.92 166.67 118.92S200.13 126.56 233.33 126.56S266.71 119.23 300 119.23S333.35 123.08 366.67 123.08S400.09 117.92 433.33 117.92S466.73 125.92 500 125.92S533.53 120.68 566.67 120.68S600.23 126.51 633.33 126.51S666.84 118.35 700 118.35S733.66 125.9 766.67 125.9S800.13 119.71 833.33 119.71S866.73 123.73 900 123.73S933.36 119.95 966.67 119.95S1000.15 123.39 1033.33 123.39S1066.73 119.01 1100 119.01S1133.5 125.71 1166.67 125.71S1200.11 117.68 1233.33 117.68S1267.01 117.06 1300 117.06S1333.63 118.6 1366.67 118.6S1400.14 124.43 1433.33 124.43S1466.84 117.06 1500 117.06S1533.62 125.58 1566.67 125.58L1540 150 L-100 150 Z"></animate>
  <animateTransform attributeName="transform" type="translate" dur="5s" begin="-4s" repeatCount="indefinite" values="0;10;0" calcMode="spline" keySplines="0.3 0 0.7 1;0.3 0 0.7 1"></animateTransform>
</path><path d="M-100 121.7C-65.37 120.86 -65.29 130.4 -31.09 130.4S3.62 122.62 37.82 122.62S72.59 129.56 106.72 129.56S141.31 121.38 175.63 121.38S210.44 130.87 244.54 130.87S279.29 128 313.45 128S348.19 128.84 382.35 128.84S416.93 124.43 451.26 124.43S485.89 124.09 520.17 124.09S554.64 124.49 589.08 124.49S623.68 129.78 657.98 129.78S692.65 121.52 726.89 121.52S761.6 130.58 795.8 130.58S830.37 120.9 864.71 120.9S899.53 130.48 933.61 130.48S968.23 121.79 1002.52 121.79S1037.13 127.66 1071.43 127.66S1106.01 123.38 1140.34 123.38S1174.85 129.54 1209.24 129.54S1243.81 124.06 1278.15 124.06S1312.94 129.44 1347.06 129.44S1381.77 122.86 1415.97 122.86S1450.5 130.67 1484.87 130.67S1519.7 123.32 1553.78 123.32L1540 150 L-100 150 Z" fill="#F0ECE5" stroke-width="0">
  <animate attributeName="d" dur="2.5s" repeatCount="indefinite" values="M-100 121.7C-65.37 120.86 -65.29 130.4 -31.09 130.4S3.62 122.62 37.82 122.62S72.59 129.56 106.72 129.56S141.31 121.38 175.63 121.38S210.44 130.87 244.54 130.87S279.29 128 313.45 128S348.19 128.84 382.35 128.84S416.93 124.43 451.26 124.43S485.89 124.09 520.17 124.09S554.64 124.49 589.08 124.49S623.68 129.78 657.98 129.78S692.65 121.52 726.89 121.52S761.6 130.58 795.8 130.58S830.37 120.9 864.71 120.9S899.53 130.48 933.61 130.48S968.23 121.79 1002.52 121.79S1037.13 127.66 1071.43 127.66S1106.01 123.38 1140.34 123.38S1174.85 129.54 1209.24 129.54S1243.81 124.06 1278.15 124.06S1312.94 129.44 1347.06 129.44S1381.77 122.86 1415.97 122.86S1450.5 130.67 1484.87 130.67S1519.7 123.32 1553.78 123.32L1540 150 L-100 150 Z;M-100 123.45C-65.49 123.7 -65.42 130.02 -31.09 130.02S3.64 129.05 37.82 129.05S72.29 130.08 106.72 130.08S141.18 130.76 175.63 130.76S210.11 130.09 244.54 130.09S279.3 121.87 313.45 121.87S348.12 128.91 382.35 128.91S416.81 124.31 451.26 124.31S486.04 130.9 520.17 130.9S554.67 122.86 589.08 122.86S623.86 129.17 657.98 129.17S692.48 122.35 726.89 122.35S761.61 127.78 795.8 127.78S830.47 121.61 864.71 121.61S899.5 128.54 933.61 128.54S968.18 122.59 1002.52 122.59S1037.33 129.46 1071.43 129.46S1105.9 122.07 1140.34 122.07S1175.02 129.48 1209.24 129.48S1243.81 122.31 1278.15 122.31S1312.9 130.47 1347.06 130.47S1381.73 121.98 1415.97 121.98S1450.65 130.1 1484.87 130.1S1519.69 121.92 1553.78 121.92L1540 150 L-100 150 Z;M-100 121.7C-65.37 120.86 -65.29 130.4 -31.09 130.4S3.62 122.62 37.82 122.62S72.59 129.56 106.72 129.56S141.31 121.38 175.63 121.38S210.44 130.87 244.54 130.87S279.29 128 313.45 128S348.19 128.84 382.35 128.84S416.93 124.43 451.26 124.43S485.89 124.09 520.17 124.09S554.64 124.49 589.08 124.49S623.68 129.78 657.98 129.78S692.65 121.52 726.89 121.52S761.6 130.58 795.8 130.58S830.37 120.9 864.71 120.9S899.53 130.48 933.61 130.48S968.23 121.79 1002.52 121.79S1037.13 127.66 1071.43 127.66S1106.01 123.38 1140.34 123.38S1174.85 129.54 1209.24 129.54S1243.81 124.06 1278.15 124.06S1312.94 129.44 1347.06 129.44S1381.77 122.86 1415.97 122.86S1450.5 130.67 1484.87 130.67S1519.7 123.32 1553.78 123.32L1540 150 L-100 150 Z"></animate>
  <animateTransform attributeName="transform" type="translate" dur="2.5s" begin="-2.25s" repeatCount="indefinite" values="0;10;0" calcMode="spline" keySplines="0.3 0 0.7 1;0.3 0 0.7 1"></animateTransform>
</path></g>
</svg>