<svg xmlns="http://www.w3.org/2000/svg" xmlns:xlink="http://www.w3.org/1999/xlink"
  style="margin:auto;background:#161a30;display:block;z-index:1;position:relative" width="1440" height="375"
  preserveAspectRatio="xMidYMid" viewBox="0 0 1440 375">
  <g transform="translate(720,187.5) scale(1,-1) translate(-720,-187.5)">
    <path
      d="M-100 221.07C-72.78 217.54 -73.33 220 -47.1 220S-19.87 220.37 5.81 220.37S32.61 221.08 58.71 221.08S85.5 224.91 111.61 224.91S138.96 219.87 164.52 219.87S191.72 220.67 217.42 220.67S243.95 220.84 270.32 220.84S297 218.34 323.23 218.34S349.8 226.68 376.13 226.68S403.43 224.37 429.03 224.37S456.15 219.46 481.94 219.46S508.45 218.68 534.84 218.68S561.52 223.17 587.74 223.17S614.91 225.06 640.65 225.06S667.53 222.4 693.55 222.4S720.74 220.41 746.45 220.41S773.05 220.62 799.35 220.62S826.09 224.27 852.26 224.27S879.56 226.85 905.16 226.85S932.42 218.75 958.06 218.75S984.6 224.95 1010.97 224.95S1037.42 222.92 1063.87 222.92S1090.35 222.91 1116.77 222.91S1143.8 226.48 1169.68 226.48S1196.86 223.31 1222.58 223.31S1249.53 226.86 1275.48 226.86S1302.72 222 1328.39 222S1355.71 220.6 1381.29 220.6S1408.54 221.86 1434.19 221.86S1461.16 222.03 1487.1 222.03S1513.79 223.87 1540 223.87S1566.57 219.79 1592.9 219.79L1540 375 L-100 375 Z"
      fill="#161a30" stroke-width="0">
      <animate attributeName="d" dur="25s" repeatCount="indefinite"
        values="M-100 221.07C-72.78 217.54 -73.33 220 -47.1 220S-19.87 220.37 5.81 220.37S32.61 221.08 58.71 221.08S85.5 224.91 111.61 224.91S138.96 219.87 164.52 219.87S191.72 220.67 217.42 220.67S243.95 220.84 270.32 220.84S297 218.34 323.23 218.34S349.8 226.68 376.13 226.68S403.43 224.37 429.03 224.37S456.15 219.46 481.94 219.46S508.45 218.68 534.84 218.68S561.52 223.17 587.74 223.17S614.91 225.06 640.65 225.06S667.53 222.4 693.55 222.4S720.74 220.41 746.45 220.41S773.05 220.62 799.35 220.62S826.09 224.27 852.26 224.27S879.56 226.85 905.16 226.85S932.42 218.75 958.06 218.75S984.6 224.95 1010.97 224.95S1037.42 222.92 1063.87 222.92S1090.35 222.91 1116.77 222.91S1143.8 226.48 1169.68 226.48S1196.86 223.31 1222.58 223.31S1249.53 226.86 1275.48 226.86S1302.72 222 1328.39 222S1355.71 220.6 1381.29 220.6S1408.54 221.86 1434.19 221.86S1461.16 222.03 1487.1 222.03S1513.79 223.87 1540 223.87S1566.57 219.79 1592.9 219.79L1540 375 L-100 375 Z;M-100 224.59C-73.01 222.46 -73.16 217.72 -47.1 217.72S-20.08 223.07 5.81 223.07S33.16 217.51 58.71 217.51S85.45 225.36 111.61 225.36S138.19 219.59 164.52 219.59S191.25 222.19 217.42 222.19S243.93 225.98 270.32 225.98S297.37 217.61 323.23 217.61S350.19 223.93 376.13 223.93S402.78 225.84 429.03 225.84S455.57 221.42 481.94 221.42S508.56 221.54 534.84 221.54S562.08 220.09 587.74 220.09S614.82 224.99 640.65 224.99S667.6 225.31 693.55 225.31S720.48 219.16 746.45 219.16S772.93 226.3 799.35 226.3S826 220.23 852.26 220.23S879.29 219.51 905.16 219.51S932.11 218.75 958.06 218.75S984.59 223.37 1010.97 223.37S1037.64 222.53 1063.87 222.53S1091.06 221.33 1116.77 221.33S1143.99 221.56 1169.68 221.56S1196.23 223.68 1222.58 223.68S1249.68 218.12 1275.48 218.12S1302.5 222.25 1328.39 222.25S1354.87 220.15 1381.29 220.15S1407.88 221.55 1434.19 221.55S1461.02 225.76 1487.1 225.76S1513.73 224.85 1540 224.85S1567.11 226.18 1592.9 226.18L1540 375 L-100 375 Z;M-100 221.07C-72.78 217.54 -73.33 220 -47.1 220S-19.87 220.37 5.81 220.37S32.61 221.08 58.71 221.08S85.5 224.91 111.61 224.91S138.96 219.87 164.52 219.87S191.72 220.67 217.42 220.67S243.95 220.84 270.32 220.84S297 218.34 323.23 218.34S349.8 226.68 376.13 226.68S403.43 224.37 429.03 224.37S456.15 219.46 481.94 219.46S508.45 218.68 534.84 218.68S561.52 223.17 587.74 223.17S614.91 225.06 640.65 225.06S667.53 222.4 693.55 222.4S720.74 220.41 746.45 220.41S773.05 220.62 799.35 220.62S826.09 224.27 852.26 224.27S879.56 226.85 905.16 226.85S932.42 218.75 958.06 218.75S984.6 224.95 1010.97 224.95S1037.42 222.92 1063.87 222.92S1090.35 222.91 1116.77 222.91S1143.8 226.48 1169.68 226.48S1196.86 223.31 1222.58 223.31S1249.53 226.86 1275.48 226.86S1302.72 222 1328.39 222S1355.71 220.6 1381.29 220.6S1408.54 221.86 1434.19 221.86S1461.16 222.03 1487.1 222.03S1513.79 223.87 1540 223.87S1566.57 219.79 1592.9 219.79L1540 375 L-100 375 Z">
      </animate>
      <animateTransform attributeName="transform" type="translate" dur="25s" begin="0s" repeatCount="indefinite"
        values="0;10;0" calcMode="spline" keySplines="0.3 0 0.7 1;0.3 0 0.7 1"></animateTransform>
    </path>
    <path
      d="M-100 230.84C-72.39 236.84 -72.43 231.34 -45.7 231.34S-18.35 229.7 8.61 229.7S36.21 237.89 62.91 237.89S90.39 235.11 117.22 235.11S144.63 237.06 171.52 237.06S199.6 230.47 225.83 230.47S252.98 231.78 280.13 231.78S307.49 234.5 334.44 234.5S362.37 237.6 388.74 237.6S416.26 233.46 443.05 233.46S470.51 235.27 497.35 235.27S524.51 227.1 551.66 227.1S579.39 232.11 605.96 232.11S633.57 231.78 660.26 231.78S687.42 236.76 714.57 236.76S742.35 229.1 768.87 229.1S796.63 234.65 823.18 234.65S850.86 228.92 877.48 228.92S905.4 237.53 931.79 237.53S959.07 234.52 986.09 234.52S1013.4 235.89 1040.4 235.89S1068.42 227.48 1094.7 227.48S1122.65 231.18 1149.01 231.18S1176.88 227.42 1203.31 227.42S1230.56 236.63 1257.62 236.63S1284.81 226.99 1311.92 226.99S1339.52 231.95 1366.23 231.95S1393.47 232.79 1420.53 232.79S1448.59 236.64 1474.83 236.64S1502.72 232.23 1529.14 232.23S1556.81 231.28 1583.44 231.28L1540 375 L-100 375 Z"
      fill="#1e2e41" stroke-width="0">
      <animate attributeName="d" dur="22.5s" repeatCount="indefinite"
        values="M-100 230.84C-72.39 236.84 -72.43 231.34 -45.7 231.34S-18.35 229.7 8.61 229.7S36.21 237.89 62.91 237.89S90.39 235.11 117.22 235.11S144.63 237.06 171.52 237.06S199.6 230.47 225.83 230.47S252.98 231.78 280.13 231.78S307.49 234.5 334.44 234.5S362.37 237.6 388.74 237.6S416.26 233.46 443.05 233.46S470.51 235.27 497.35 235.27S524.51 227.1 551.66 227.1S579.39 232.11 605.96 232.11S633.57 231.78 660.26 231.78S687.42 236.76 714.57 236.76S742.35 229.1 768.87 229.1S796.63 234.65 823.18 234.65S850.86 228.92 877.48 228.92S905.4 237.53 931.79 237.53S959.07 234.52 986.09 234.52S1013.4 235.89 1040.4 235.89S1068.42 227.48 1094.7 227.48S1122.65 231.18 1149.01 231.18S1176.88 227.42 1203.31 227.42S1230.56 236.63 1257.62 236.63S1284.81 226.99 1311.92 226.99S1339.52 231.95 1366.23 231.95S1393.47 232.79 1420.53 232.79S1448.59 236.64 1474.83 236.64S1502.72 232.23 1529.14 232.23S1556.81 231.28 1583.44 231.28L1540 375 L-100 375 Z;M-100 227.37C-72.13 233.29 -72.7 235.43 -45.7 235.43S-17.68 228.33 8.61 228.33S36.15 231.96 62.91 231.96S90.35 232.85 117.22 232.85S144.52 234.25 171.52 234.25S198.77 234.76 225.83 234.76S253.05 233.24 280.13 233.24S307.96 229.08 334.44 229.08S362.23 233.04 388.74 233.04S416.57 230.68 443.05 230.68S470.42 232.69 497.35 232.69S525.34 229.23 551.66 229.23S578.94 236.8 605.96 236.8S633.77 230.08 660.26 230.08S688.03 237.13 714.57 237.13S742.23 233.96 768.87 233.96S796.55 236.55 823.18 236.55S851.15 232.83 877.48 232.83S904.94 234.76 931.79 234.76S959.8 233.5 986.09 233.5S1013.62 233.41 1040.4 233.41S1067.9 229.15 1094.7 229.15S1122.14 226.91 1149.01 226.91S1177.09 232.34 1203.31 232.34S1230.94 235.53 1257.62 235.53S1285.63 228.61 1311.92 228.61S1339.69 236.51 1366.23 236.51S1393.83 235.62 1420.53 235.62S1448.14 230.84 1474.83 230.84S1501.99 227.3 1529.14 227.3S1556.61 231.88 1583.44 231.88L1540 375 L-100 375 Z;M-100 230.84C-72.39 236.84 -72.43 231.34 -45.7 231.34S-18.35 229.7 8.61 229.7S36.21 237.89 62.91 237.89S90.39 235.11 117.22 235.11S144.63 237.06 171.52 237.06S199.6 230.47 225.83 230.47S252.98 231.78 280.13 231.78S307.49 234.5 334.44 234.5S362.37 237.6 388.74 237.6S416.26 233.46 443.05 233.46S470.51 235.27 497.35 235.27S524.51 227.1 551.66 227.1S579.39 232.11 605.96 232.11S633.57 231.78 660.26 231.78S687.42 236.76 714.57 236.76S742.35 229.1 768.87 229.1S796.63 234.65 823.18 234.65S850.86 228.92 877.48 228.92S905.4 237.53 931.79 237.53S959.07 234.52 986.09 234.52S1013.4 235.89 1040.4 235.89S1068.42 227.48 1094.7 227.48S1122.65 231.18 1149.01 231.18S1176.88 227.42 1203.31 227.42S1230.56 236.63 1257.62 236.63S1284.81 226.99 1311.92 226.99S1339.52 231.95 1366.23 231.95S1393.47 232.79 1420.53 232.79S1448.59 236.64 1474.83 236.64S1502.72 232.23 1529.14 232.23S1556.81 231.28 1583.44 231.28L1540 375 L-100 375 Z">
      </animate>
      <animateTransform attributeName="transform" type="translate" dur="22.5s" begin="-2.25s" repeatCount="indefinite"
        values="0;10;0" calcMode="spline" keySplines="0.3 0 0.7 1;0.3 0 0.7 1"></animateTransform>
    </path>
    <path
      d="M-100 241.34C-71.88 245.77 -71.25 240.32 -44.22 240.32S-16.19 244.31 11.56 244.31S39.67 245.31 67.35 245.31S95.91 244.65 123.13 244.65S151.22 239.83 178.91 239.83S207.64 239.86 234.69 239.86S262.79 242.2 290.48 242.2S318.51 238.95 346.26 238.95S374.45 246.2 402.04 246.2S430.85 243.91 457.82 243.91S486.52 246.3 513.61 246.3S541.65 239.36 569.39 239.36S597.5 242.03 625.17 242.03S653.71 244.2 680.95 244.2S709.26 244.96 736.73 244.96S765.2 238.33 792.52 238.33S820.78 247.27 848.3 247.27S876.54 238.75 904.08 238.75S932.69 241.94 959.86 241.94S987.79 239.88 1015.65 239.88S1043.86 242.31 1071.43 242.31S1099.91 244.35 1127.21 244.35S1155.72 240.17 1182.99 240.17S1211.24 240.34 1238.78 240.34S1267.58 241.38 1294.56 241.38S1323.29 244.51 1350.34 244.51S1378.25 244.48 1406.12 244.48S1434.12 241.61 1461.9 241.61S1490.56 245.46 1517.69 245.46S1545.9 238.1 1573.47 238.1L1540 375 L-100 375 Z"
      fill="#2a4251" stroke-width="0">
      <animate attributeName="d" dur="20s" repeatCount="indefinite"
        values="M-100 241.34C-71.88 245.77 -71.25 240.32 -44.22 240.32S-16.19 244.31 11.56 244.31S39.67 245.31 67.35 245.31S95.91 244.65 123.13 244.65S151.22 239.83 178.91 239.83S207.64 239.86 234.69 239.86S262.79 242.2 290.48 242.2S318.51 238.95 346.26 238.95S374.45 246.2 402.04 246.2S430.85 243.91 457.82 243.91S486.52 246.3 513.61 246.3S541.65 239.36 569.39 239.36S597.5 242.03 625.17 242.03S653.71 244.2 680.95 244.2S709.26 244.96 736.73 244.96S765.2 238.33 792.52 238.33S820.78 247.27 848.3 247.27S876.54 238.75 904.08 238.75S932.69 241.94 959.86 241.94S987.79 239.88 1015.65 239.88S1043.86 242.31 1071.43 242.31S1099.91 244.35 1127.21 244.35S1155.72 240.17 1182.99 240.17S1211.24 240.34 1238.78 240.34S1267.58 241.38 1294.56 241.38S1323.29 244.51 1350.34 244.51S1378.25 244.48 1406.12 244.48S1434.12 241.61 1461.9 241.61S1490.56 245.46 1517.69 245.46S1545.9 238.1 1573.47 238.1L1540 375 L-100 375 Z;M-100 238.8C-71.78 237.29 -71.52 241.72 -44.22 241.72S-15.95 238.69 11.56 238.69S39.7 247 67.35 247S96.05 244.18 123.13 244.18S151.8 245.71 178.91 245.71S207.64 238.17 234.69 238.17S263.17 242.84 290.48 242.84S319.21 240.97 346.26 240.97S374.81 242.39 402.04 242.39S430.16 240.49 457.82 240.49S485.9 244.54 513.61 244.54S541.86 243.92 569.39 243.92S598.01 244.54 625.17 244.54S653.59 245.27 680.95 245.27S709.4 246.31 736.73 246.31S765.09 245.4 792.52 245.4S820.68 244.48 848.3 244.48S876.25 236.5 904.08 236.5S932.03 242.04 959.86 242.04S987.77 239.35 1015.65 239.35S1044.41 241.17 1071.43 241.17S1099.58 242.42 1127.21 242.42S1155.39 241.23 1182.99 241.23S1211.42 244.12 1238.78 244.12S1267.23 244.16 1294.56 244.16S1322.58 242.82 1350.34 242.82S1378.65 244.3 1406.12 244.3S1434.44 241.15 1461.9 241.15S1490.19 244.38 1517.69 244.38S1546.47 236.89 1573.47 236.89L1540 375 L-100 375 Z;M-100 241.34C-71.88 245.77 -71.25 240.32 -44.22 240.32S-16.19 244.31 11.56 244.31S39.67 245.31 67.35 245.31S95.91 244.65 123.13 244.65S151.22 239.83 178.91 239.83S207.64 239.86 234.69 239.86S262.79 242.2 290.48 242.2S318.51 238.95 346.26 238.95S374.45 246.2 402.04 246.2S430.85 243.91 457.82 243.91S486.52 246.3 513.61 246.3S541.65 239.36 569.39 239.36S597.5 242.03 625.17 242.03S653.71 244.2 680.95 244.2S709.26 244.96 736.73 244.96S765.2 238.33 792.52 238.33S820.78 247.27 848.3 247.27S876.54 238.75 904.08 238.75S932.69 241.94 959.86 241.94S987.79 239.88 1015.65 239.88S1043.86 242.31 1071.43 242.31S1099.91 244.35 1127.21 244.35S1155.72 240.17 1182.99 240.17S1211.24 240.34 1238.78 240.34S1267.58 241.38 1294.56 241.38S1323.29 244.51 1350.34 244.51S1378.25 244.48 1406.12 244.48S1434.12 241.61 1461.9 241.61S1490.56 245.46 1517.69 245.46S1545.9 238.1 1573.47 238.1L1540 375 L-100 375 Z">
      </animate>
      <animateTransform attributeName="transform" type="translate" dur="20s" begin="-4s" repeatCount="indefinite"
        values="0;10;0" calcMode="spline" keySplines="0.3 0 0.7 1;0.3 0 0.7 1"></animateTransform>
    </path>
    <path
      d="M-100 248.56C-70.74 248.7 -70.82 257.13 -42.66 257.13S-13.28 247.17 14.69 247.17S43.89 253.13 72.03 253.13S100.94 250.19 129.37 250.19S158.82 260.22 186.71 260.22S216.22 247.95 244.06 247.95S273.23 252.09 301.4 252.09S330.76 251.88 358.74 251.88S387.51 255.81 416.08 255.81S445.33 252.56 473.43 252.56S502.83 256.58 530.77 256.58S559.5 252.64 588.11 252.64S617.04 251.91 645.45 251.91S674.77 259.2 702.8 259.2S731.53 252.95 760.14 252.95S789.59 245.98 817.48 245.98S846.95 251.52 874.83 251.52S904.43 253.05 932.17 253.05S961.54 251.97 989.51 251.97S1018.93 247.08 1046.85 247.08S1076.14 257.29 1104.2 257.29S1133.12 249.75 1161.54 249.75S1190.92 255.14 1218.88 255.14S1248.34 249.78 1276.22 249.78S1305.69 259.12 1333.57 259.12S1362.85 247.48 1390.91 247.48S1419.88 251.44 1448.25 251.44S1476.99 256.05 1505.59 256.05S1534.98 259.4 1562.94 259.4L1540 375 L-100 375 Z"
      fill="#3b575f" stroke-width="0">
      <animate attributeName="d" dur="17.5s" repeatCount="indefinite"
        values="M-100 248.56C-70.74 248.7 -70.82 257.13 -42.66 257.13S-13.28 247.17 14.69 247.17S43.89 253.13 72.03 253.13S100.94 250.19 129.37 250.19S158.82 260.22 186.71 260.22S216.22 247.95 244.06 247.95S273.23 252.09 301.4 252.09S330.76 251.88 358.74 251.88S387.51 255.81 416.08 255.81S445.33 252.56 473.43 252.56S502.83 256.58 530.77 256.58S559.5 252.64 588.11 252.64S617.04 251.91 645.45 251.91S674.77 259.2 702.8 259.2S731.53 252.95 760.14 252.95S789.59 245.98 817.48 245.98S846.95 251.52 874.83 251.52S904.43 253.05 932.17 253.05S961.54 251.97 989.51 251.97S1018.93 247.08 1046.85 247.08S1076.14 257.29 1104.2 257.29S1133.12 249.75 1161.54 249.75S1190.92 255.14 1218.88 255.14S1248.34 249.78 1276.22 249.78S1305.69 259.12 1333.57 259.12S1362.85 247.48 1390.91 247.48S1419.88 251.44 1448.25 251.44S1476.99 256.05 1505.59 256.05S1534.98 259.4 1562.94 259.4L1540 375 L-100 375 Z;M-100 252.48C-70.5 246.07 -70.82 256.54 -42.66 256.54S-13.94 250.04 14.69 250.04S43.39 254.81 72.03 254.81S101.57 250.33 129.37 250.33S158.5 255.34 186.71 255.34S216.1 249.06 244.06 249.06S272.8 252.08 301.4 252.08S330.68 246.6 358.74 246.6S387.6 257.93 416.08 257.93S445.51 258.71 473.43 258.71S502.31 256.59 530.77 256.59S559.97 253.99 588.11 253.99S617.69 255.61 645.45 255.61S674.42 250.17 702.8 250.17S732.11 252.88 760.14 252.88S788.95 250.02 817.48 250.02S846.97 260.38 874.83 260.38S903.91 257.39 932.17 257.39S961.59 258.76 989.51 258.76S1018.57 247.06 1046.85 247.06S1076.37 258.88 1104.2 258.88S1133.59 254.82 1161.54 254.82S1190.6 255.97 1218.88 255.97S1248.31 251.69 1276.22 251.69S1305.17 252.76 1333.57 252.76S1363.14 249.45 1390.91 249.45S1420.15 251.91 1448.25 251.91S1477.51 252.71 1505.59 252.71S1534.95 256.7 1562.94 256.7L1540 375 L-100 375 Z;M-100 248.56C-70.74 248.7 -70.82 257.13 -42.66 257.13S-13.28 247.17 14.69 247.17S43.89 253.13 72.03 253.13S100.94 250.19 129.37 250.19S158.82 260.22 186.71 260.22S216.22 247.95 244.06 247.95S273.23 252.09 301.4 252.09S330.76 251.88 358.74 251.88S387.51 255.81 416.08 255.81S445.33 252.56 473.43 252.56S502.83 256.58 530.77 256.58S559.5 252.64 588.11 252.64S617.04 251.91 645.45 251.91S674.77 259.2 702.8 259.2S731.53 252.95 760.14 252.95S789.59 245.98 817.48 245.98S846.95 251.52 874.83 251.52S904.43 253.05 932.17 253.05S961.54 251.97 989.51 251.97S1018.93 247.08 1046.85 247.08S1076.14 257.29 1104.2 257.29S1133.12 249.75 1161.54 249.75S1190.92 255.14 1218.88 255.14S1248.34 249.78 1276.22 249.78S1305.69 259.12 1333.57 259.12S1362.85 247.48 1390.91 247.48S1419.88 251.44 1448.25 251.44S1476.99 256.05 1505.59 256.05S1534.98 259.4 1562.94 259.4L1540 375 L-100 375 Z">
      </animate>
      <animateTransform attributeName="transform" type="translate" dur="17.5s" begin="-5.25s" repeatCount="indefinite"
        values="0;10;0" calcMode="spline" keySplines="0.3 0 0.7 1;0.3 0 0.7 1"></animateTransform>
    </path>
    <path
      d="M-100 256.15C-70.35 255.23 -70.46 270.71 -41.01 270.71S-10.63 256.86 17.99 256.86S48.26 263.93 76.98 263.93S107.28 256.94 135.97 256.94S166.3 265.35 194.96 265.35S224.67 256.14 253.96 256.14S283.89 259.79 312.95 259.79S343.09 257.1 371.94 257.1S401.56 263.63 430.94 263.63S460.63 259.52 489.93 259.52S520.2 264.16 548.92 264.16S579.19 255.96 607.91 255.96S638.13 269.72 666.91 269.72S696.77 271.54 725.9 271.54S755.89 255.57 784.89 255.57S814.53 262.43 843.88 262.43S874.1 271.4 902.88 271.4S932.9 258.44 961.87 258.44S992.16 271.54 1020.86 271.54S1050.49 256.08 1079.86 256.08S1109.97 270.79 1138.85 270.79S1168.65 258.47 1197.84 258.47S1227.87 263.08 1256.83 263.08S1286.36 256.37 1315.83 256.37S1345.38 269.84 1374.82 269.84S1405.11 258.2 1433.81 258.2S1463.86 260.62 1492.81 260.62S1523.07 262.55 1551.8 262.55L1540 375 L-100 375 Z"
      fill="#506c6d" stroke-width="0">
      <animate attributeName="d" dur="15s" repeatCount="indefinite"
        values="M-100 256.15C-70.35 255.23 -70.46 270.71 -41.01 270.71S-10.63 256.86 17.99 256.86S48.26 263.93 76.98 263.93S107.28 256.94 135.97 256.94S166.3 265.35 194.96 265.35S224.67 256.14 253.96 256.14S283.89 259.79 312.95 259.79S343.09 257.1 371.94 257.1S401.56 263.63 430.94 263.63S460.63 259.52 489.93 259.52S520.2 264.16 548.92 264.16S579.19 255.96 607.91 255.96S638.13 269.72 666.91 269.72S696.77 271.54 725.9 271.54S755.89 255.57 784.89 255.57S814.53 262.43 843.88 262.43S874.1 271.4 902.88 271.4S932.9 258.44 961.87 258.44S992.16 271.54 1020.86 271.54S1050.49 256.08 1079.86 256.08S1109.97 270.79 1138.85 270.79S1168.65 258.47 1197.84 258.47S1227.87 263.08 1256.83 263.08S1286.36 256.37 1315.83 256.37S1345.38 269.84 1374.82 269.84S1405.11 258.2 1433.81 258.2S1463.86 260.62 1492.81 260.62S1523.07 262.55 1551.8 262.55L1540 375 L-100 375 Z;M-100 256.43C-69.8 261.85 -70.3 262.62 -41.01 262.62S-11 263.7 17.99 263.7S47.65 266.67 76.98 266.67S107.21 257.07 135.97 257.07S166.23 265.02 194.96 265.02S225.29 255.43 253.96 255.43S283.67 267.61 312.95 267.61S343.37 264.01 371.94 264.01S402.06 269.88 430.94 269.88S461.25 260.08 489.93 260.08S519.86 262.8 548.92 262.8S579 258.21 607.91 258.21S637.47 263.42 666.91 263.42S697.27 258.73 725.9 258.73S756.18 269.62 784.89 269.62S815.16 264.06 843.88 264.06S874.03 270.37 902.88 270.37S933.2 263.34 961.87 263.34S992.17 268.88 1020.86 268.88S1050.45 259.43 1079.86 259.43S1110.01 256.27 1138.85 256.27S1168.93 263.89 1197.84 263.89S1228.17 265.74 1256.83 265.74S1286.89 260.03 1315.83 260.03S1345.61 263.43 1374.82 263.43S1405.11 259.43 1433.81 259.43S1463.53 263.99 1492.81 263.99S1522.36 266.8 1551.8 266.8L1540 375 L-100 375 Z;M-100 256.15C-70.35 255.23 -70.46 270.71 -41.01 270.71S-10.63 256.86 17.99 256.86S48.26 263.93 76.98 263.93S107.28 256.94 135.97 256.94S166.3 265.35 194.96 265.35S224.67 256.14 253.96 256.14S283.89 259.79 312.95 259.79S343.09 257.1 371.94 257.1S401.56 263.63 430.94 263.63S460.63 259.52 489.93 259.52S520.2 264.16 548.92 264.16S579.19 255.96 607.91 255.96S638.13 269.72 666.91 269.72S696.77 271.54 725.9 271.54S755.89 255.57 784.89 255.57S814.53 262.43 843.88 262.43S874.1 271.4 902.88 271.4S932.9 258.44 961.87 258.44S992.16 271.54 1020.86 271.54S1050.49 256.08 1079.86 256.08S1109.97 270.79 1138.85 270.79S1168.65 258.47 1197.84 258.47S1227.87 263.08 1256.83 263.08S1286.36 256.37 1315.83 256.37S1345.38 269.84 1374.82 269.84S1405.11 258.2 1433.81 258.2S1463.86 260.62 1492.81 260.62S1523.07 262.55 1551.8 262.55L1540 375 L-100 375 Z">
      </animate>
      <animateTransform attributeName="transform" type="translate" dur="15s" begin="-6s" repeatCount="indefinite"
        values="0;10;0" calcMode="spline" keySplines="0.3 0 0.7 1;0.3 0 0.7 1"></animateTransform>
    </path>
    <path
      d="M-100 265.3C-69.13 268.21 -68.86 280.62 -39.26 280.62S-8.52 271.64 21.48 271.64S52.21 281.76 82.22 281.76S112.83 271.87 142.96 271.87S173.52 280.78 203.7 280.78S234.62 265.81 264.44 265.81S295.54 281.74 325.19 281.74S355.62 271.24 385.93 271.24S416.93 277.73 446.67 277.73S477.73 271.24 507.41 271.24S537.95 279.97 568.15 279.97S598.56 269.06 628.89 269.06S659.49 277 689.63 277S720.9 266.01 750.37 266.01S781.53 274.78 811.11 274.78S841.97 267.88 871.85 267.88S902.53 280.98 932.59 280.98S963.49 266.33 993.33 266.33S1024.47 278.02 1054.07 278.02S1084.75 269.74 1114.81 269.74S1145.36 277.5 1175.56 277.5S1206.17 269.88 1236.3 269.88S1267.46 278.5 1297.04 278.5S1328.26 265.34 1357.78 265.34S1388.72 276.65 1418.52 276.65S1449.82 273.58 1479.26 273.58S1509.82 278.14 1540 278.14S1571.06 268.12 1600.74 268.12L1540 375 L-100 375 Z"
      fill="#68807c" stroke-width="0">
      <animate attributeName="d" dur="12.5s" repeatCount="indefinite"
        values="M-100 265.3C-69.13 268.21 -68.86 280.62 -39.26 280.62S-8.52 271.64 21.48 271.64S52.21 281.76 82.22 281.76S112.83 271.87 142.96 271.87S173.52 280.78 203.7 280.78S234.62 265.81 264.44 265.81S295.54 281.74 325.19 281.74S355.62 271.24 385.93 271.24S416.93 277.73 446.67 277.73S477.73 271.24 507.41 271.24S537.95 279.97 568.15 279.97S598.56 269.06 628.89 269.06S659.49 277 689.63 277S720.9 266.01 750.37 266.01S781.53 274.78 811.11 274.78S841.97 267.88 871.85 267.88S902.53 280.98 932.59 280.98S963.49 266.33 993.33 266.33S1024.47 278.02 1054.07 278.02S1084.75 269.74 1114.81 269.74S1145.36 277.5 1175.56 277.5S1206.17 269.88 1236.3 269.88S1267.46 278.5 1297.04 278.5S1328.26 265.34 1357.78 265.34S1388.72 276.65 1418.52 276.65S1449.82 273.58 1479.26 273.58S1509.82 278.14 1540 278.14S1571.06 268.12 1600.74 268.12L1540 375 L-100 375 Z;M-100 266.64C-69.48 269.47 -68.75 281.23 -39.26 281.23S-8.08 267.45 21.48 267.45S52.02 280.26 82.22 280.26S113.21 271 142.96 271S173.74 276.54 203.7 276.54S234.46 270.59 264.44 270.59S295.63 277.63 325.19 277.63S356.05 267.68 385.93 267.68S417.18 272.83 446.67 272.83S477.89 272.6 507.41 272.6S538.7 268.67 568.15 268.67S599.37 266.04 628.89 266.04S660.1 282.47 689.63 282.47S720.87 265.68 750.37 265.68S781.06 281.72 811.11 281.72S841.98 266.08 871.85 266.08S902.28 277.16 932.59 277.16S963.57 281.18 993.33 281.18S1024.22 280.57 1054.07 280.57S1084.64 267.15 1114.81 267.15S1145.21 279.76 1175.56 279.76S1205.93 269.87 1236.3 269.87S1266.69 275.59 1297.04 275.59S1327.67 267.25 1357.78 267.25S1388.45 274.31 1418.52 274.31S1449.46 268.23 1479.26 268.23S1509.76 278.63 1540 278.63S1570.98 268.27 1600.74 268.27L1540 375 L-100 375 Z;M-100 265.3C-69.13 268.21 -68.86 280.62 -39.26 280.62S-8.52 271.64 21.48 271.64S52.21 281.76 82.22 281.76S112.83 271.87 142.96 271.87S173.52 280.78 203.7 280.78S234.62 265.81 264.44 265.81S295.54 281.74 325.19 281.74S355.62 271.24 385.93 271.24S416.93 277.73 446.67 277.73S477.73 271.24 507.41 271.24S537.95 279.97 568.15 279.97S598.56 269.06 628.89 269.06S659.49 277 689.63 277S720.9 266.01 750.37 266.01S781.53 274.78 811.11 274.78S841.97 267.88 871.85 267.88S902.53 280.98 932.59 280.98S963.49 266.33 993.33 266.33S1024.47 278.02 1054.07 278.02S1084.75 269.74 1114.81 269.74S1145.36 277.5 1175.56 277.5S1206.17 269.88 1236.3 269.88S1267.46 278.5 1297.04 278.5S1328.26 265.34 1357.78 265.34S1388.72 276.65 1418.52 276.65S1449.82 273.58 1479.26 273.58S1509.82 278.14 1540 278.14S1571.06 268.12 1600.74 268.12L1540 375 L-100 375 Z">
      </animate>
      <animateTransform attributeName="transform" type="translate" dur="12.5s" begin="-6.25s" repeatCount="indefinite"
        values="0;10;0" calcMode="spline" keySplines="0.3 0 0.7 1;0.3 0 0.7 1"></animateTransform>
    </path>
    <path
      d="M-100 282.32C-68.46 278 -67.94 287.87 -37.4 287.87S-5.74 285.99 25.19 285.99S57.02 285.89 87.79 285.89S119.73 275.96 150.38 275.96S182.08 287.93 212.98 287.93S245.07 281.43 275.57 281.43S307.43 289.45 338.17 289.45S370.35 274.14 400.76 274.14S432.26 290.35 463.36 290.35S494.92 280.37 525.95 280.37S557.61 287.65 588.55 287.65S619.9 282.72 651.15 282.72S683.24 289.05 713.74 289.05S745.63 279.62 776.34 279.62S808.56 292.68 838.93 292.68S870.51 277.34 901.53 277.34S932.97 286.17 964.12 286.17S996.14 286.85 1026.72 286.85S1058.82 289.77 1089.31 289.77S1120.72 279.38 1151.91 279.38S1183.57 290.67 1214.5 290.67S1246.29 276.62 1277.1 276.62S1308.51 289.75 1339.69 289.75S1371.28 280.72 1402.29 280.72S1434.16 289.31 1464.89 289.31S1496.66 280.64 1527.48 280.64S1559.58 290.82 1590.08 290.82L1540 375 L-100 375 Z"
      fill="#82958c" stroke-width="0">
      <animate attributeName="d" dur="10s" repeatCount="indefinite"
        values="M-100 282.32C-68.46 278 -67.94 287.87 -37.4 287.87S-5.74 285.99 25.19 285.99S57.02 285.89 87.79 285.89S119.73 275.96 150.38 275.96S182.08 287.93 212.98 287.93S245.07 281.43 275.57 281.43S307.43 289.45 338.17 289.45S370.35 274.14 400.76 274.14S432.26 290.35 463.36 290.35S494.92 280.37 525.95 280.37S557.61 287.65 588.55 287.65S619.9 282.72 651.15 282.72S683.24 289.05 713.74 289.05S745.63 279.62 776.34 279.62S808.56 292.68 838.93 292.68S870.51 277.34 901.53 277.34S932.97 286.17 964.12 286.17S996.14 286.85 1026.72 286.85S1058.82 289.77 1089.31 289.77S1120.72 279.38 1151.91 279.38S1183.57 290.67 1214.5 290.67S1246.29 276.62 1277.1 276.62S1308.51 289.75 1339.69 289.75S1371.28 280.72 1402.29 280.72S1434.16 289.31 1464.89 289.31S1496.66 280.64 1527.48 280.64S1559.58 290.82 1590.08 290.82L1540 375 L-100 375 Z;M-100 281.14C-68.54 283.07 -68.07 290.99 -37.4 290.99S-5.78 282.7 25.19 282.7S56.91 289.21 87.79 289.21S119.43 285.54 150.38 285.54S181.76 287.83 212.98 287.83S244.51 276.11 275.57 276.11S307.15 280.35 338.17 280.35S370.29 277.09 400.76 277.09S432.52 288.46 463.36 288.46S494.72 280 525.95 280S558.06 277.07 588.55 277.07S620.14 291.26 651.15 291.26S683.21 292.16 713.74 292.16S745.82 278.64 776.34 278.64S808.08 281.34 838.93 281.34S871.09 280.35 901.53 280.35S932.98 288.28 964.12 288.28S995.92 279.05 1026.72 279.05S1058.17 280.3 1089.31 280.3S1121.18 277.48 1151.91 277.48S1183.45 288.59 1214.5 288.59S1246.57 282.68 1277.1 282.68S1308.58 292.15 1339.69 292.15S1371.91 275.52 1402.29 275.52S1434.45 287.99 1464.89 287.99S1496.51 279.07 1527.48 279.07S1559.71 293.05 1590.08 293.05L1540 375 L-100 375 Z;M-100 282.32C-68.46 278 -67.94 287.87 -37.4 287.87S-5.74 285.99 25.19 285.99S57.02 285.89 87.79 285.89S119.73 275.96 150.38 275.96S182.08 287.93 212.98 287.93S245.07 281.43 275.57 281.43S307.43 289.45 338.17 289.45S370.35 274.14 400.76 274.14S432.26 290.35 463.36 290.35S494.92 280.37 525.95 280.37S557.61 287.65 588.55 287.65S619.9 282.72 651.15 282.72S683.24 289.05 713.74 289.05S745.63 279.62 776.34 279.62S808.56 292.68 838.93 292.68S870.51 277.34 901.53 277.34S932.97 286.17 964.12 286.17S996.14 286.85 1026.72 286.85S1058.82 289.77 1089.31 289.77S1120.72 279.38 1151.91 279.38S1183.57 290.67 1214.5 290.67S1246.29 276.62 1277.1 276.62S1308.51 289.75 1339.69 289.75S1371.28 280.72 1402.29 280.72S1434.16 289.31 1464.89 289.31S1496.66 280.64 1527.48 280.64S1559.58 290.82 1590.08 290.82L1540 375 L-100 375 Z">
      </animate>
      <animateTransform attributeName="transform" type="translate" dur="10s" begin="-6s" repeatCount="indefinite"
        values="0;10;0" calcMode="spline" keySplines="0.3 0 0.7 1;0.3 0 0.7 1"></animateTransform>
    </path>
    <path
      d="M-100 285.32C-66.86 286.15 -67.22 303.16 -35.43 303.16S-2.64 289.56 29.13 289.56S62.21 303.66 93.7 303.66S126.12 291.9 158.27 291.9S191.06 301.07 222.83 301.07S255.82 290.31 287.4 290.31S319.94 296.68 351.97 296.68S384.47 286.82 416.54 286.82S449.63 303.69 481.1 303.69S513.45 292.22 545.67 292.22S578.49 300.18 610.24 300.18S642.52 289.31 674.8 289.31S707.52 299.32 739.37 299.32S772.52 283.41 803.94 283.41S836.3 297.31 868.5 297.31S901.26 283.13 933.07 283.13S965.59 302.76 997.64 302.76S1030.07 284.12 1062.2 284.12S1095.04 303.9 1126.77 303.9S1159.75 298.83 1191.34 298.83S1224.27 299.86 1255.91 299.86S1288.77 292.16 1320.47 292.16S1353.06 303.42 1385.04 303.42S1417.37 283.48 1449.61 283.48S1482.05 301.45 1514.17 301.45S1547.27 284.28 1578.74 284.28L1540 375 L-100 375 Z"
      fill="#9eaa9e" stroke-width="0">
      <animate attributeName="d" dur="7.5s" repeatCount="indefinite"
        values="M-100 285.32C-66.86 286.15 -67.22 303.16 -35.43 303.16S-2.64 289.56 29.13 289.56S62.21 303.66 93.7 303.66S126.12 291.9 158.27 291.9S191.06 301.07 222.83 301.07S255.82 290.31 287.4 290.31S319.94 296.68 351.97 296.68S384.47 286.82 416.54 286.82S449.63 303.69 481.1 303.69S513.45 292.22 545.67 292.22S578.49 300.18 610.24 300.18S642.52 289.31 674.8 289.31S707.52 299.32 739.37 299.32S772.52 283.41 803.94 283.41S836.3 297.31 868.5 297.31S901.26 283.13 933.07 283.13S965.59 302.76 997.64 302.76S1030.07 284.12 1062.2 284.12S1095.04 303.9 1126.77 303.9S1159.75 298.83 1191.34 298.83S1224.27 299.86 1255.91 299.86S1288.77 292.16 1320.47 292.16S1353.06 303.42 1385.04 303.42S1417.37 283.48 1449.61 283.48S1482.05 301.45 1514.17 301.45S1547.27 284.28 1578.74 284.28L1540 375 L-100 375 Z;M-100 285.75C-67.51 285.12 -67.53 303.4 -35.43 303.4S-2.63 286.52 29.13 286.52S61.96 299.67 93.7 299.67S126.81 290.7 158.27 290.7S191.28 283.2 222.83 283.2S255.3 286.96 287.4 286.96S320.04 299.57 351.97 299.57S384.53 285.88 416.54 285.88S449.5 298.73 481.1 298.73S513.43 287.03 545.67 287.03S578.35 305.34 610.24 305.34S642.96 304.69 674.8 304.69S707.16 304.21 739.37 304.21S772.08 304.48 803.94 304.48S836.83 299.38 868.5 299.38S901.61 284.97 933.07 284.97S965.36 300.2 997.64 300.2S1029.92 284.82 1062.2 284.82S1094.98 297.67 1126.77 297.67S1159.72 290.61 1191.34 290.61S1224.02 296.59 1255.91 296.59S1288.31 288.18 1320.47 288.18S1353.14 287.33 1385.04 287.33S1418.16 300.8 1449.61 300.8S1482.76 298.29 1514.17 298.29S1547.38 289.51 1578.74 289.51L1540 375 L-100 375 Z;M-100 285.32C-66.86 286.15 -67.22 303.16 -35.43 303.16S-2.64 289.56 29.13 289.56S62.21 303.66 93.7 303.66S126.12 291.9 158.27 291.9S191.06 301.07 222.83 301.07S255.82 290.31 287.4 290.31S319.94 296.68 351.97 296.68S384.47 286.82 416.54 286.82S449.63 303.69 481.1 303.69S513.45 292.22 545.67 292.22S578.49 300.18 610.24 300.18S642.52 289.31 674.8 289.31S707.52 299.32 739.37 299.32S772.52 283.41 803.94 283.41S836.3 297.31 868.5 297.31S901.26 283.13 933.07 283.13S965.59 302.76 997.64 302.76S1030.07 284.12 1062.2 284.12S1095.04 303.9 1126.77 303.9S1159.75 298.83 1191.34 298.83S1224.27 299.86 1255.91 299.86S1288.77 292.16 1320.47 292.16S1353.06 303.42 1385.04 303.42S1417.37 283.48 1449.61 283.48S1482.05 301.45 1514.17 301.45S1547.27 284.28 1578.74 284.28L1540 375 L-100 375 Z">
      </animate>
      <animateTransform attributeName="transform" type="translate" dur="7.5s" begin="-5.25s" repeatCount="indefinite"
        values="0;10;0" calcMode="spline" keySplines="0.3 0 0.7 1;0.3 0 0.7 1"></animateTransform>
    </path>
    <path
      d="M-100 295.68C-66.03 298.86 -66.04 308.54 -33.33 308.54S0.55 298.33 33.33 298.33S67.32 310.02 100 310.02S133.57 293.91 166.67 293.91S200.86 316.68 233.33 316.68S267.32 297.72 300 297.72S333.76 311.94 366.67 311.94S400.02 300.72 433.33 300.72S466.95 307.89 500 307.89S533.38 296.91 566.67 296.91S600.13 311.44 633.33 311.44S667.59 293.4 700 293.4S734.2 310.85 766.67 310.85S800.55 296.26 833.33 296.26S867.26 309.63 900 309.63S933.86 301.47 966.67 301.47S1000.09 309.78 1033.33 309.78S1066.72 300.91 1100 300.91S1133.68 311.2 1166.67 311.2S1200.52 301.87 1233.33 301.87S1266.89 312.46 1300 312.46S1333.36 300.79 1366.67 300.79S1400.01 308.16 1433.33 308.16S1467.07 297.79 1500 297.79S1533.99 310.8 1566.67 310.8L1540 375 L-100 375 Z"
      fill="#babfb4" stroke-width="0">
      <animate attributeName="d" dur="5s" repeatCount="indefinite"
        values="M-100 295.68C-66.03 298.86 -66.04 308.54 -33.33 308.54S0.55 298.33 33.33 298.33S67.32 310.02 100 310.02S133.57 293.91 166.67 293.91S200.86 316.68 233.33 316.68S267.32 297.72 300 297.72S333.76 311.94 366.67 311.94S400.02 300.72 433.33 300.72S466.95 307.89 500 307.89S533.38 296.91 566.67 296.91S600.13 311.44 633.33 311.44S667.59 293.4 700 293.4S734.2 310.85 766.67 310.85S800.55 296.26 833.33 296.26S867.26 309.63 900 309.63S933.86 301.47 966.67 301.47S1000.09 309.78 1033.33 309.78S1066.72 300.91 1100 300.91S1133.68 311.2 1166.67 311.2S1200.52 301.87 1233.33 301.87S1266.89 312.46 1300 312.46S1333.36 300.79 1366.67 300.79S1400.01 308.16 1433.33 308.16S1467.07 297.79 1500 297.79S1533.99 310.8 1566.67 310.8L1540 375 L-100 375 Z;M-100 298.48C-65.95 299.83 -66.19 295.32 -33.33 295.32S0.32 298.78 33.33 298.78S67.6 315.36 100 315.36S133.68 294.38 166.67 294.38S200.51 311.07 233.33 311.07S266.96 298.03 300 298.03S334.2 307.84 366.67 307.84S400.03 313.54 433.33 313.54S466.76 308.73 500 308.73S534.07 296.6 566.67 296.6S600.51 308.6 633.33 308.6S667.42 300.12 700 300.12S733.35 310.23 766.67 310.23S800.66 295.48 833.33 295.48S867.22 311.46 900 311.46S934.26 294.81 966.67 294.81S1000.33 313.52 1033.33 313.52S1067.28 297.63 1100 297.63S1133.97 314.57 1166.67 314.57S1200.7 292.75 1233.33 292.75S1267.25 308.54 1300 308.54S1334 293.07 1366.67 293.07S1400.08 294.98 1433.33 294.98S1467.33 294.87 1500 294.87S1534.25 314.91 1566.67 314.91L1540 375 L-100 375 Z;M-100 295.68C-66.03 298.86 -66.04 308.54 -33.33 308.54S0.55 298.33 33.33 298.33S67.32 310.02 100 310.02S133.57 293.91 166.67 293.91S200.86 316.68 233.33 316.68S267.32 297.72 300 297.72S333.76 311.94 366.67 311.94S400.02 300.72 433.33 300.72S466.95 307.89 500 307.89S533.38 296.91 566.67 296.91S600.13 311.44 633.33 311.44S667.59 293.4 700 293.4S734.2 310.85 766.67 310.85S800.55 296.26 833.33 296.26S867.26 309.63 900 309.63S933.86 301.47 966.67 301.47S1000.09 309.78 1033.33 309.78S1066.72 300.91 1100 300.91S1133.68 311.2 1166.67 311.2S1200.52 301.87 1233.33 301.87S1266.89 312.46 1300 312.46S1333.36 300.79 1366.67 300.79S1400.01 308.16 1433.33 308.16S1467.07 297.79 1500 297.79S1533.99 310.8 1566.67 310.8L1540 375 L-100 375 Z">
      </animate>
      <animateTransform attributeName="transform" type="translate" dur="5s" begin="-4s" repeatCount="indefinite"
        values="0;10;0" calcMode="spline" keySplines="0.3 0 0.7 1;0.3 0 0.7 1"></animateTransform>
    </path>
    <path
      d="M-100 307.97C-64.98 301.92 -65.08 321.5 -31.09 321.5S3.55 309.37 37.82 309.37S72.93 324.2 106.72 324.2S141.47 308.54 175.63 308.54S211.01 326.62 244.54 326.62S279.48 306.43 313.45 306.43S348.42 309.23 382.35 309.23S416.86 303.61 451.26 303.61S485.78 302.83 520.17 302.83S555.48 304.94 589.08 304.94S623.96 310.59 657.98 310.59S692.62 305.72 726.89 305.72S761.82 326.99 795.8 326.99S830.49 307.21 864.71 307.21S899.62 323.21 933.61 323.21S968.76 310.9 1002.52 310.9S1037.88 323.58 1071.43 323.58S1106.66 307.15 1140.34 307.15S1175.15 323.28 1209.24 323.28S1244.12 305.7 1278.15 305.7S1312.88 326.76 1347.06 326.76S1382.11 311.06 1415.97 311.06S1451.07 320.82 1484.87 320.82S1519.77 302.38 1553.78 302.38L1540 375 L-100 375 Z"
      fill="#F0ECE5" stroke-width="0">
      <animate attributeName="d" dur="2.5s" repeatCount="indefinite"
        values="M-100 307.97C-64.98 301.92 -65.08 321.5 -31.09 321.5S3.55 309.37 37.82 309.37S72.93 324.2 106.72 324.2S141.47 308.54 175.63 308.54S211.01 326.62 244.54 326.62S279.48 306.43 313.45 306.43S348.42 309.23 382.35 309.23S416.86 303.61 451.26 303.61S485.78 302.83 520.17 302.83S555.48 304.94 589.08 304.94S623.96 310.59 657.98 310.59S692.62 305.72 726.89 305.72S761.82 326.99 795.8 326.99S830.49 307.21 864.71 307.21S899.62 323.21 933.61 323.21S968.76 310.9 1002.52 310.9S1037.88 323.58 1071.43 323.58S1106.66 307.15 1140.34 307.15S1175.15 323.28 1209.24 323.28S1244.12 305.7 1278.15 305.7S1312.88 326.76 1347.06 326.76S1382.11 311.06 1415.97 311.06S1451.07 320.82 1484.87 320.82S1519.77 302.38 1553.78 302.38L1540 375 L-100 375 Z;M-100 302.59C-65.22 306.85 -65.38 325.45 -31.09 325.45S3.92 305.45 37.82 305.45S73.08 320.67 106.72 320.67S141.63 307.74 175.63 307.74S210.23 321.47 244.54 321.47S279.27 307.44 313.45 307.44S348.15 321.12 382.35 321.12S417.06 327.29 451.26 327.29S485.97 306.38 520.17 306.38S555.42 309.45 589.08 309.45S624.17 322.58 657.98 322.58S692.73 321.17 726.89 321.17S761.64 322.69 795.8 322.69S830.46 310.44 864.71 310.44S899.46 319.87 933.61 319.87S968.31 307.41 1002.52 307.41S1037.31 322.08 1071.43 322.08S1106.42 306.09 1140.34 306.09S1175.31 319.56 1209.24 319.56S1243.94 302.91 1278.15 302.91S1312.69 327.46 1347.06 327.46S1381.75 309 1415.97 309S1450.86 323.47 1484.87 323.47S1520.01 306.96 1553.78 306.96L1540 375 L-100 375 Z;M-100 307.97C-64.98 301.92 -65.08 321.5 -31.09 321.5S3.55 309.37 37.82 309.37S72.93 324.2 106.72 324.2S141.47 308.54 175.63 308.54S211.01 326.62 244.54 326.62S279.48 306.43 313.45 306.43S348.42 309.23 382.35 309.23S416.86 303.61 451.26 303.61S485.78 302.83 520.17 302.83S555.48 304.94 589.08 304.94S623.96 310.59 657.98 310.59S692.62 305.72 726.89 305.72S761.82 326.99 795.8 326.99S830.49 307.21 864.71 307.21S899.62 323.21 933.61 323.21S968.76 310.9 1002.52 310.9S1037.88 323.58 1071.43 323.58S1106.66 307.15 1140.34 307.15S1175.15 323.28 1209.24 323.28S1244.12 305.7 1278.15 305.7S1312.88 326.76 1347.06 326.76S1382.11 311.06 1415.97 311.06S1451.07 320.82 1484.87 320.82S1519.77 302.38 1553.78 302.38L1540 375 L-100 375 Z">
      </animate>
      <animateTransform attributeName="transform" type="translate" dur="2.5s" begin="-2.25s" repeatCount="indefinite"
        values="0;10;0" calcMode="spline" keySplines="0.3 0 0.7 1;0.3 0 0.7 1"></animateTransform>
    </path>
  </g>
</svg>